<?xml version="1.0" standalone="no"?>
<!DOCTYPE svg PUBLIC "-//W3C//DTD SVG 20010904//EN"
 "http://www.w3.org/TR/2001/REC-SVG-20010904/DTD/svg10.dtd">
<svg version="1.0" xmlns="http://www.w3.org/2000/svg"
 width="1170.000000pt" height="500.000000pt" viewBox="0 0 1170.000000 500.000000"
 preserveAspectRatio="xMidYMid meet">

<g transform="translate(0.000000,500.000000) scale(0.100000,-0.100000)"
fill="#000000" stroke="none">
<path d="M3611 4725 c-1 -49 -4 -100 -7 -112 -4 -16 -2 -23 8 -23 11 0 13 19
10 98 -4 130 -9 147 -11 37z"/>
<path d="M3561 4549 c11 -21 9 -58 -5 -89 -5 -11 3 -19 25 -27 28 -11 30 -15
19 -28 -10 -12 -10 -19 -2 -27 7 -7 12 -38 12 -71 l0 -58 -34 35 c-39 42 -69
46 -92 10 -16 -23 -16 -26 -1 -42 13 -13 19 -14 29 -4 10 10 10 17 0 33 -17
27 -8 35 25 23 34 -12 70 -78 53 -99 -6 -8 -9 -23 -5 -34 15 -47 -68 -135
-171 -182 -35 -16 -69 -29 -76 -29 -7 0 -19 -4 -27 -9 -12 -8 -8 -15 17 -36
18 -15 32 -33 32 -40 0 -8 4 -16 9 -19 18 -12 -2 35 -25 57 -28 26 -30 37 -6
37 24 0 135 54 177 86 20 15 50 49 67 76 26 40 34 47 43 35 5 -9 16 -24 23
-34 9 -13 8 -9 -1 12 -7 17 -12 38 -9 48 2 10 -2 24 -8 32 -9 11 -7 23 11 54
25 44 49 58 76 42 17 -9 17 -10 1 -16 -10 -4 -18 -13 -18 -20 0 -22 21 -29 38
-12 14 14 14 18 -2 41 -22 34 -51 33 -87 -4 l-30 -29 2 85 c2 79 4 85 25 90
21 5 22 10 17 55 -4 32 -1 54 7 64 10 12 10 15 -4 15 -23 0 -48 -44 -44 -79 2
-17 -1 -29 -7 -28 -5 1 -9 9 -8 17 4 25 -6 58 -23 74 -23 23 -37 20 -23 -5z
m69 -364 c0 -8 -6 -15 -14 -15 -17 0 -28 14 -19 24 12 12 33 6 33 -9z"/>
<path d="M5695 4365 c-33 -20 -89 -52 -125 -70 -66 -34 -110 -68 -110 -85 0
-6 -6 -10 -14 -10 -23 0 -163 -156 -191 -214 -28 -58 -49 -172 -39 -213 7 -26
6 -26 -36 -19 -58 9 -59 10 -53 54 6 44 -12 66 -49 60 -33 -4 -36 -43 -6 -75
l23 -25 -43 -38 c-63 -57 -123 -73 -240 -68 -122 6 -194 35 -356 141 -64 42
-133 85 -154 96 -85 43 -155 38 -208 -16 -33 -33 -35 -38 -33 -98 2 -62 3 -65
43 -93 48 -35 176 -161 176 -173 0 -15 2477 -11 2517 3 39 14 60 6 83 -35 13
-24 13 -28 -5 -52 l-20 -26 -1310 0 -1310 1 -24 32 c-45 59 -145 154 -201 189
-132 83 -253 119 -405 119 -132 0 -221 -20 -330 -74 -186 -92 -316 -238 -380
-425 -137 -404 84 -835 495 -963 98 -30 299 -33 399 -5 193 53 356 177 460
350 12 20 27 37 32 37 13 0 11 -13 -7 -38 -20 -29 -14 -36 20 -21 27 13 37 35
11 25 -8 -3 -15 -2 -15 3 0 5 9 11 20 14 10 3 19 2 18 -2 0 -3 0 -13 1 -21 1
-12 4 -12 12 3 5 9 7 22 4 27 -3 6 3 10 15 10 20 0 20 -1 -6 -52 -111 -220
-315 -380 -557 -438 -112 -27 -282 -27 -394 0 -256 61 -459 228 -572 472 -52
110 -70 182 -77 303 -15 239 65 459 230 632 80 85 154 139 259 189 231 109
513 105 741 -11 38 -19 71 -33 74 -31 8 8 -133 74 -203 95 -39 11 -101 25
-140 31 -42 5 -74 15 -81 25 -14 19 -30 19 -41 2 -5 -8 -45 -19 -97 -26 -298
-41 -539 -212 -666 -476 -72 -148 -84 -202 -84 -380 0 -135 3 -159 28 -240 53
-174 151 -321 289 -430 129 -103 288 -169 442 -184 57 -5 80 -12 87 -24 12
-23 30 -21 46 3 8 14 23 20 46 20 48 0 160 26 232 55 194 76 359 226 453 413
l31 62 -69 0 -70 0 -30 -52 c-97 -170 -283 -301 -486 -343 -323 -66 -660 101
-805 400 -52 105 -72 197 -72 320 0 128 21 216 79 335 39 79 61 109 132 180
97 96 179 148 296 187 72 25 94 27 225 27 131 0 153 -2 225 -27 44 -14 109
-43 144 -64 73 -43 184 -142 226 -203 l28 -40 675 0 675 0 -21 -22 c-11 -13
-25 -34 -30 -48 -10 -28 -1 -75 13 -75 6 0 21 -8 35 -18 13 -9 19 -17 13 -17
-6 0 -17 7 -24 17 -13 15 -15 13 -20 -13 -3 -16 0 -35 7 -44 9 -11 10 -36 4
-95 -11 -99 -12 -223 -4 -343 l7 -92 63 0 63 0 5 33 c13 82 16 263 6 371 -8
90 -8 121 1 127 7 4 9 17 5 33 -4 15 -11 24 -16 21 -5 -3 -2 7 8 24 19 34 29
34 12 -1 -11 -22 -10 -22 4 -4 21 26 20 71 -1 107 -20 34 -27 35 -45 12 -15
-20 -71 -24 -89 -6 -30 30 30 33 662 32 l634 0 18 23 c23 28 16 75 -14 101
-23 19 -74 23 -84 7 -4 -7 -432 -10 -1250 -10 l-1244 0 -20 28 c-18 25 -70 77
-163 165 -32 30 -38 41 -38 77 0 80 87 135 176 111 21 -6 103 -53 182 -105 83
-55 178 -109 225 -128 72 -28 94 -32 177 -32 83 -1 102 3 154 27 32 15 73 43
91 62 l33 34 55 -11 c51 -11 56 -14 66 -48 6 -21 28 -63 48 -94 l37 -56 154 0
154 0 -55 45 c-121 99 -156 206 -97 303 21 34 55 43 78 20 24 -24 11 4 -27 60
-21 31 -56 73 -76 92 -20 19 -41 44 -47 55 -26 52 121 -123 186 -220 40 -61
80 -115 87 -121 28 -23 59 -26 86 -9 l26 18 -24 13 c-22 13 -21 13 21 7 119
-17 139 -41 96 -116 -32 -55 -33 -81 -1 -112 29 -30 68 -32 113 -5 34 21 45
38 13 20 -31 -16 -32 -12 -9 25 11 20 18 38 15 41 -3 3 -12 -8 -21 -24 -24
-46 -77 -58 -96 -22 -9 17 -5 31 19 74 17 29 31 60 31 69 0 32 -35 57 -95 68
-80 14 -96 19 -90 29 3 4 -2 36 -11 71 -19 76 -13 129 22 183 14 21 21 35 15
32 -20 -13 -12 10 11 30 12 10 18 13 14 7 -4 -7 -5 -13 -2 -13 3 0 10 10 17
21 9 17 8 20 -3 13 -9 -6 -8 -1 3 16 9 14 22 42 28 63 12 34 11 41 -6 60 -17
20 -17 21 0 8 10 -8 24 -28 32 -45 l13 -31 1 46 c1 57 -9 67 -80 74 -50 6 -59
4 -114 -30z m86 -49 c-20 -21 -22 -31 -16 -78 5 -40 3 -58 -9 -73 -15 -20 -15
-20 -9 2 3 12 -2 35 -10 52 -9 17 -11 34 -6 40 6 8 5 8 -3 1 -7 -5 -20 -10
-29 -10 -9 0 -22 -13 -29 -30 -7 -16 -17 -30 -22 -30 -5 0 -6 -5 -2 -12 4 -6
3 -8 -4 -4 -6 4 -11 -1 -11 -11 0 -10 -9 -43 -20 -73 -11 -30 -20 -47 -21 -37
0 10 7 34 15 54 20 47 19 50 -7 26 -13 -11 -33 -24 -45 -27 l-22 -7 24 -35
c13 -20 27 -45 31 -57 7 -22 8 -22 16 3 5 18 6 14 2 -15 -3 -25 -1 -35 4 -27
7 10 13 -1 21 -35 16 -64 55 -121 94 -138 18 -8 24 -14 15 -15 -34 0 -77 53
-138 170 -34 66 -74 129 -88 140 l-25 20 24 0 c40 0 83 34 135 105 33 45 66
77 99 96 61 35 65 36 36 5z m-192 -72 c-30 -29 -110 -54 -87 -26 20 23 70 52
93 52 18 0 17 -2 -6 -26z m152 -138 c-32 -33 -34 -38 -28 -93 5 -57 5 -57 -8
-23 -23 61 -19 85 22 119 49 41 55 39 14 -3z m-16 -226 c10 -11 16 -20 13 -20
-3 0 -13 9 -23 20 -10 11 -16 20 -13 20 3 0 13 -9 23 -20z m-19 -32 l29 -33
-32 29 c-31 28 -38 36 -30 36 2 0 16 -15 33 -32z m-598 -26 c4 -38 -11 -42
-34 -7 -18 27 -11 48 14 43 11 -2 18 -15 20 -36z m532 -497 c7 -8 10 -22 6
-30 -3 -8 -5 -19 -5 -23 0 -4 -10 -10 -23 -14 -22 -7 -22 -7 2 -5 14 1 26 8
26 15 3 24 4 26 16 14 8 -8 8 -15 -2 -27 -15 -19 -64 -20 -79 -2 -13 17 -4 28
16 20 13 -5 13 -3 2 15 -10 17 -10 23 0 36 17 20 25 20 41 1z m15 -125 c-3 -5
-28 -10 -56 -10 -27 0 -49 5 -49 10 0 6 25 10 56 10 34 0 53 -4 49 -10z m20
-82 c4 -29 5 -71 2 -93 -3 -34 -4 -31 -5 16 -1 31 -5 71 -8 88 -6 28 -10 31
-44 31 l-38 0 -7 -57 c-9 -70 -8 -341 1 -389 6 -34 8 -35 48 -32 l41 3 6 80 5
80 2 -70 c3 -107 -1 -115 -58 -115 -41 0 -50 4 -55 21 -10 30 -11 364 -2 432
l8 57 49 0 49 0 6 -52z m12 -225 c-2 -16 -4 -3 -4 27 0 30 2 43 4 28 2 -16 2
-40 0 -55z"/>
<path d="M5883 4215 c0 -33 2 -45 4 -27 2 18 2 45 0 60 -2 15 -4 0 -4 -33z"/>
<path d="M5840 4235 c-8 -9 -8 -15 -2 -15 6 0 13 -10 15 -22 2 -13 4 -6 3 14
0 21 -2 38 -2 38 -1 0 -7 -7 -14 -15z"/>
<path d="M5847 4135 c-6 -35 -4 -40 10 -23 6 7 7 22 3 33 -6 17 -8 15 -13 -10z"/>
<path d="M6917 4136 c-40 -13 -81 -35 -97 -52 -33 -33 -130 -190 -130 -211 0
-27 85 -15 190 27 55 22 107 40 115 40 19 0 35 -40 35 -84 0 -19 -12 -65 -27
-102 -22 -59 -26 -85 -27 -184 -1 -63 3 -167 8 -230 l8 -115 -99 -67 c-102
-69 -203 -165 -203 -192 0 -26 60 -49 125 -50 42 0 81 8 130 27 91 35 240 73
346 87 167 23 267 15 499 -42 119 -28 128 -29 163 -15 70 30 98 124 55 189 -9
14 -96 63 -216 123 l-201 100 -16 75 c-83 377 -88 391 -182 524 -44 63 -53 71
-113 93 -36 13 -90 37 -121 53 -72 38 -144 40 -242 6z m121 -162 c9 -30 8 -35
-5 -30 -8 3 -26 6 -39 6 l-25 0 21 22 c11 12 20 25 20 30 0 22 18 4 28 -28z
m49 -695 l28 -11 -34 -14 c-43 -18 -41 -18 -41 11 0 28 6 30 47 14z m793 -136
c30 -7 64 -22 74 -33 26 -26 25 -76 -2 -103 l-22 -21 -132 32 c-177 43 -282
56 -405 49 -57 -2 -103 -4 -103 -2 0 4 137 51 205 71 124 35 266 38 385 7z"/>
<path d="M3675 4071 c19 -23 75 -66 75 -59 0 2 -21 21 -47 43 -27 21 -39 28
-28 16z"/>
<path d="M3600 4060 c0 -5 -9 -19 -21 -31 -18 -18 -19 -22 -6 -37 8 -9 22 -33
30 -52 15 -33 15 -34 16 -9 1 15 10 38 22 52 l20 27 -20 22 c-12 12 -21 25
-21 30 0 4 -4 8 -10 8 -5 0 -10 -4 -10 -10z"/>
<path d="M3767 3999 c7 -7 15 -10 18 -7 3 3 -2 9 -12 12 -14 6 -15 5 -6 -5z"/>
<path d="M3489 3958 c-15 -11 -42 -24 -60 -28 -26 -6 -11 -8 58 -9 l91 -1 -28
30 c-15 17 -30 30 -32 29 -1 0 -15 -9 -29 -21z"/>
<path d="M3668 3949 l-27 -29 97 1 c66 1 87 3 66 9 -18 4 -47 17 -67 29 -19
11 -36 20 -38 20 -2 -1 -16 -14 -31 -30z"/>
<path d="M3830 3970 c8 -5 20 -10 25 -10 6 0 3 5 -5 10 -8 5 -19 10 -25 10 -5
0 -3 -5 5 -10z"/>
<path d="M3893 3928 c-22 -24 -43 -61 -43 -75 0 -4 9 6 20 24 11 18 29 38 40
45 11 7 20 16 20 20 0 15 -16 8 -37 -14z"/>
<path d="M3510 3834 c-70 -11 -140 -28 -140 -34 0 -17 15 -19 31 -4 16 15 17
14 12 -5 -3 -11 -9 -19 -13 -16 -4 3 -11 -2 -14 -11 -4 -10 -12 -14 -22 -10
-10 4 -22 -1 -30 -11 -13 -17 -14 -17 -7 2 4 11 13 27 21 35 29 28 -7 21 -92
-18 -103 -49 -163 -89 -239 -161 -44 -42 -56 -59 -51 -75 4 -15 3 -17 -4 -8
-20 29 -133 -169 -167 -293 -32 -119 -29 -390 5 -445 7 -11 11 -9 19 13 6 15
13 27 16 27 2 0 0 -11 -5 -25 -9 -23 -6 -29 12 -26 4 0 5 -13 1 -31 -5 -26 -3
-30 10 -25 11 4 14 2 10 -9 -3 -7 -2 -22 1 -31 6 -15 8 -15 17 -3 8 11 9 7 6
-17 -2 -23 1 -33 10 -33 7 0 13 -11 13 -25 0 -26 15 -34 23 -12 3 6 6 -3 6
-20 1 -33 15 -44 24 -20 3 6 6 -3 6 -20 1 -33 15 -44 24 -20 3 7 6 5 6 -5 1
-12 -6 -18 -19 -18 -13 0 -20 7 -20 20 0 11 -7 20 -15 20 -8 0 -15 9 -15 19 0
10 -7 21 -15 25 -8 3 -15 15 -15 26 0 12 -7 20 -16 20 -11 0 -15 6 -11 19 3
11 -1 22 -8 25 -8 3 -15 15 -17 27 -2 12 -9 24 -16 27 -31 10 63 -158 139
-248 22 -26 69 -71 104 -99 67 -55 213 -136 224 -126 3 4 -2 13 -13 20 -18 13
-17 14 3 12 14 -1 21 -8 21 -23 0 -17 9 -24 42 -32 44 -11 54 -10 44 6 -3 6
-15 8 -26 5 -12 -3 -22 1 -26 11 -3 9 -9 14 -13 12 -4 -3 -7 4 -7 15 0 19 1
19 12 4 7 -9 18 -14 24 -10 6 4 17 1 25 -5 8 -6 19 -9 25 -5 6 4 17 1 25 -5 8
-6 19 -9 25 -5 6 4 18 1 26 -6 11 -9 18 -9 26 -1 8 8 4 12 -13 16 -102 21
-142 32 -194 54 -70 30 -157 83 -200 121 -62 56 -65 57 -65 22 0 -21 5 -31 15
-31 9 0 18 -7 21 -15 4 -8 12 -15 20 -15 7 0 18 -10 24 -22 10 -21 10 -21 -3
-5 -8 9 -22 17 -31 17 -9 0 -16 7 -16 15 0 8 -7 15 -16 15 -9 0 -18 9 -21 20
-3 11 -12 20 -19 20 -8 0 -14 8 -13 18 0 10 3 12 6 5 7 -18 20 -16 27 2 3 10
-12 38 -41 73 -54 67 -119 199 -136 277 -6 30 -15 55 -20 55 -4 0 -15 -15 -23
-32 -14 -30 -15 -31 -9 -5 3 17 1 27 -6 27 -7 0 -9 9 -6 22 4 12 1 28 -5 35
-7 9 -7 17 1 26 8 10 7 17 -1 25 -19 19 6 39 27 22 13 -10 15 -9 15 8 0 15 -5
19 -20 15 -23 -6 -38 21 -21 40 8 10 7 17 -1 25 -8 8 -8 15 1 26 7 8 10 20 6
26 -4 6 -1 17 5 25 6 8 9 19 5 25 -4 6 -2 17 4 24 6 7 10 20 8 27 -2 8 -2 11
0 7 3 -5 11 -8 19 -8 9 0 12 5 8 12 -4 7 -9 24 -10 38 -1 14 0 19 3 13 2 -7
12 -13 21 -13 14 0 14 -2 3 -9 -8 -5 -11 -16 -8 -25 4 -10 1 -19 -9 -23 -8 -3
-13 -12 -10 -19 3 -8 0 -11 -10 -7 -7 3 -14 0 -14 -6 0 -6 8 -11 18 -11 14 0
15 -2 2 -10 -12 -7 -12 -12 -3 -21 14 -14 12 -17 38 75 19 67 63 159 107 224
22 32 25 42 13 42 -8 0 -15 -9 -15 -20 0 -11 -7 -20 -15 -20 -9 0 -15 -9 -15
-21 0 -24 -31 -23 -37 1 -4 13 -3 13 6 0 13 -19 23 -8 24 27 0 15 2 22 4 16 6
-18 23 -16 23 2 0 9 6 18 14 21 8 3 17 16 20 29 4 15 11 22 20 19 8 -3 16 3
19 15 3 12 13 21 24 20 16 -1 16 -2 1 -6 -10 -2 -18 -11 -18 -19 0 -20 100 64
101 85 0 9 3 11 5 4 4 -8 20 -2 51 17 51 33 183 90 207 90 9 0 18 10 21 23 4
13 14 28 23 33 14 9 17 7 18 -13 2 -18 -1 -21 -11 -13 -9 8 -14 6 -18 -5 -5
-12 3 -14 56 -8 70 7 72 7 62 23 -5 8 -10 8 -20 0 -10 -8 -19 -8 -34 0 -12 6
-21 14 -21 17 0 3 3 3 7 0 3 -4 12 -2 20 5 11 9 12 7 7 -7 -5 -13 -3 -16 7
-13 8 3 13 10 12 16 -2 6 3 9 11 6 8 -3 17 0 21 6 5 8 11 8 21 -1 11 -9 17 -9
28 0 11 9 19 9 35 -1 23 -14 36 -38 21 -38 -6 0 -10 5 -10 11 0 6 -7 9 -15 5
-8 -3 -14 -2 -12 2 1 4 -1 8 -5 10 -19 6 -20 1 -3 -18 13 -14 31 -20 59 -20
36 1 39 2 24 14 -10 7 -18 18 -18 25 0 25 -91 38 -180 25z m-197 -71 c-4 -10
-15 -27 -26 -38 -18 -19 -18 -19 -11 0 7 17 35 55 41 55 1 0 -1 -8 -4 -17z
m-63 -49 c-9 -17 -20 -24 -32 -21 -11 3 -18 0 -18 -8 0 -8 -4 -16 -10 -20 -5
-3 -5 7 1 25 6 16 15 33 20 36 5 3 6 -3 2 -12 -9 -25 20 -13 32 14 5 11 11 19
14 16 2 -2 -2 -16 -9 -30z m-88 -46 c-8 -8 -9 -4 -5 13 4 13 8 18 11 10 2 -7
-1 -18 -6 -23z m-37 -28 c-3 -5 -11 -10 -16 -10 -6 0 -7 5 -4 10 3 6 11 10 16
10 6 0 7 -4 4 -10z m-48 -42 c-3 -7 -5 -2 -5 12 0 14 2 19 5 13 2 -7 2 -19 0
-25z m33 12 c0 -5 -5 -10 -11 -10 -5 0 -7 5 -4 10 3 6 8 10 11 10 2 0 4 -4 4
-10z m-208 -244 c-12 -6 -19 -16 -15 -21 4 -4 3 -5 -4 -1 -18 10 -6 32 20 33
l22 2 -23 -13z m-24 -36 c15 -1 15 -2 -1 -11 -9 -6 -14 -16 -11 -22 4 -7 3 -9
-1 -5 -5 5 -9 20 -11 35 -1 16 0 22 3 16 2 -7 12 -13 21 -13z m332 -1030 l13
-25 -20 20 c-11 11 -18 24 -16 28 6 10 7 9 23 -23z"/>
<path d="M6766 3806 c-16 -30 -17 -38 -6 -52 17 -20 26 -150 11 -168 -15 -17
-656 -23 -676 -6 -10 8 -19 8 -35 0 -12 -6 -20 -14 -17 -16 6 -6 739 -5 744 0
2 2 2 65 1 140 l-3 137 -19 -35z"/>
<path d="M3696 3815 c4 -8 7 -15 9 -15 1 0 8 7 15 15 10 13 9 15 -8 15 -15 0
-20 -5 -16 -15z"/>
<path d="M3566 3813 c-8 -9 14 -33 30 -33 8 0 14 5 14 11 0 6 -7 8 -16 5 -8
-3 -12 -2 -9 3 6 11 -9 23 -19 14z"/>
<path d="M3733 3809 c-16 -16 -3 -49 19 -49 19 0 19 1 5 24 -15 22 -15 24 3
19 11 -3 19 -8 18 -12 -4 -32 4 -43 27 -39 13 3 22 1 19 -3 -5 -8 1 -10 39
-13 6 -1 14 -4 17 -7 6 -7 67 -39 75 -39 3 0 5 7 5 15 0 8 -4 15 -9 15 -5 0
-11 10 -14 23 -5 20 -5 20 7 5 7 -10 20 -18 29 -18 9 0 23 -13 32 -30 9 -16
11 -30 6 -30 -5 0 -12 11 -15 25 -8 30 -27 34 -23 4 2 -11 18 -29 36 -40 35
-21 52 -19 32 5 -9 11 -6 14 15 14 14 0 22 -3 17 -7 -16 -11 -22 -38 -10 -50
15 -15 27 -14 27 4 0 8 -5 15 -11 15 -5 0 -7 5 -3 11 9 15 24 -8 24 -37 0 -11
14 -33 30 -49 23 -22 30 -25 30 -12 0 9 -6 17 -14 17 -15 0 -33 56 -22 67 3 4
6 -1 6 -10 0 -10 7 -17 17 -17 14 0 14 2 -3 21 -34 38 -102 80 -107 66 -3 -7
-6 -5 -6 5 -1 11 -24 29 -62 49 -58 29 -86 32 -61 7 7 -7 12 -19 12 -28 -1 -8
-7 -3 -16 13 -12 22 -18 26 -29 17 -11 -9 -16 -7 -25 10 -7 12 -16 18 -23 13
-16 -10 -37 -13 -35 -5 6 32 -36 54 -59 31z"/>
<path d="M3802 3799 c2 -6 8 -10 13 -10 5 0 11 4 13 10 2 6 -4 11 -13 11 -9 0
-15 -5 -13 -11z"/>
<path d="M3850 3790 c0 -15 21 -23 32 -12 6 6 2 11 -11 15 -12 3 -21 1 -21 -3z"/>
<path d="M3360 3776 c0 -9 5 -16 10 -16 6 0 10 4 10 9 0 6 -4 13 -10 16 -5 3
-10 -1 -10 -9z"/>
<path d="M6640 3773 c-53 -7 -71 -14 -64 -24 4 -7 0 -9 -12 -6 -11 4 -46 -8
-84 -28 -36 -19 -61 -34 -57 -35 4 0 34 14 67 30 73 37 84 38 45 5 -59 -50
-107 -79 -153 -91 l-47 -13 76 0 c70 -1 77 1 82 20 7 24 33 20 31 -5 -1 -12 7
-16 34 -16 33 0 34 1 19 18 -23 25 -22 78 2 99 11 9 17 21 14 26 -3 6 -2 8 3
5 5 -3 27 -3 49 1 42 7 38 19 -5 14z"/>
<path d="M4457 3743 c95 -84 246 -144 359 -144 85 0 113 6 177 38 67 33 59 37
-10 5 -49 -23 -72 -27 -143 -27 -47 0 -107 6 -135 14 -57 16 -169 69 -235 112
l-45 29 32 -27z"/>
<path d="M6690 3756 c0 -2 7 -7 16 -10 8 -3 12 -2 9 4 -6 10 -25 14 -25 6z"/>
<path d="M6636 3721 c-3 -4 6 -6 19 -3 14 2 25 6 25 8 0 8 -39 4 -44 -5z"/>
<path d="M6262 3699 c4 -29 25 -36 23 -7 -1 12 -7 24 -14 26 -8 3 -12 -4 -9
-19z"/>
<path d="M6710 3705 c0 -5 5 -17 10 -25 5 -8 10 -10 10 -5 0 6 -5 17 -10 25
-5 8 -10 11 -10 5z"/>
<path d="M6604 3685 c-3 -8 -4 -20 -2 -27 3 -7 7 -1 10 15 6 29 1 36 -8 12z"/>
<path d="M6752 3680 c0 -14 2 -19 5 -12 2 6 2 18 0 25 -3 6 -5 1 -5 -13z"/>
<path d="M6388 3673 c7 -3 16 -2 19 1 4 3 -2 6 -13 5 -11 0 -14 -3 -6 -6z"/>
<path d="M6645 3671 c-3 -5 -1 -12 4 -15 12 -8 41 3 41 15 0 12 -37 12 -45 0z"/>
<path d="M6313 3663 c9 -2 25 -2 35 0 9 3 1 5 -18 5 -19 0 -27 -2 -17 -5z"/>
<path d="M6164 3645 c-3 -8 -3 -19 1 -25 11 -18 25 -11 25 15 0 27 -17 34 -26
10z"/>
<path d="M6669 3633 c-13 -16 -12 -17 4 -4 9 7 17 15 17 17 0 8 -8 3 -21 -13z"/>
<path d="M6701 3606 l-24 -31 28 27 c16 15 27 29 24 31 -2 3 -15 -10 -28 -27z"/>
<path d="M3513 3615 c-61 -17 -124 -47 -171 -82 -20 -15 -41 -23 -53 -20 -19
5 -19 5 1 -28 13 -21 23 -62 29 -120 10 -101 30 -138 79 -143 39 -4 59 25 38
54 -14 18 -15 18 -33 1 -19 -16 -21 -16 -37 2 -63 69 -3 205 118 269 44 23 63
27 141 27 80 0 95 -3 136 -27 63 -37 133 -107 159 -158 33 -65 50 -194 50
-387 0 -287 -24 -392 -111 -488 -144 -157 -388 -161 -542 -8 -27 26 -55 63
-63 82 -18 44 -18 118 1 155 19 35 13 43 -20 28 -37 -17 -38 -16 -32 33 7 51
35 112 64 137 34 31 93 50 134 43 46 -8 51 4 13 34 l-26 21 24 9 c24 9 78 15
111 12 15 -1 17 -16 17 -162 l0 -161 -32 6 c-48 9 -68 33 -68 78 0 22 5 48 10
58 13 25 -2 33 -34 19 -50 -23 -71 -111 -40 -170 18 -35 82 -68 132 -69 28 0
32 -3 32 -25 0 -63 -49 -125 -98 -125 -20 0 -23 4 -19 21 7 25 -17 37 -38 19
-21 -17 -19 -54 5 -75 27 -25 90 -16 176 24 36 17 84 34 105 37 l38 6 -28 28
c-18 15 -32 42 -37 64 -6 36 -4 41 35 76 107 98 107 256 1 341 l-42 34 4 156
c4 132 8 161 24 190 14 24 27 34 45 34 20 0 24 -5 22 -27 -2 -32 20 -43 42
-22 19 20 19 58 -1 78 -9 9 -32 16 -54 16 -33 0 -48 -8 -92 -47 -44 -39 -52
-52 -50 -75 4 -35 -20 -38 -42 -6 -13 18 -20 20 -48 12 -26 -8 -34 -16 -36
-39 -3 -25 -2 -27 12 -16 44 37 91 -62 84 -175 l-3 -48 -64 -2 c-175 -7 -307
-121 -330 -284 -17 -127 28 -258 119 -350 68 -67 134 -97 243 -111 145 -19
286 16 393 97 43 33 115 133 138 193 20 51 35 196 36 333 0 106 18 171 51 189
29 15 11 32 -26 26 l-32 -5 -17 77 c-48 227 -205 353 -435 350 -31 0 -80 -7
-108 -14z m183 -672 c20 -53 9 -105 -31 -143 l-25 -23 0 123 c0 122 0 123 20
105 10 -9 27 -37 36 -62z"/>
<path d="M4172 3580 c2 -22 9 -35 20 -38 10 -2 18 -13 18 -23 0 -24 17 -25 23
-1 4 13 5 11 6 -5 1 -13 7 -23 16 -23 8 0 15 2 15 5 0 12 -63 74 -71 69 -5 -3
-6 1 -3 9 3 8 -2 20 -11 27 -14 11 -15 9 -13 -20z"/>
<path d="M6719 3593 c-13 -16 -12 -17 4 -4 9 7 17 15 17 17 0 8 -8 3 -21 -13z"/>
<path d="M4140 3590 c0 -5 5 -10 10 -10 6 0 10 5 10 10 0 6 -4 10 -10 10 -5 0
-10 -4 -10 -10z"/>
<path d="M3000 3515 c0 -8 4 -15 9 -15 5 0 11 7 15 15 3 9 0 15 -9 15 -8 0
-15 -7 -15 -15z"/>
<path d="M4207 3480 c35 -47 53 -61 53 -41 0 5 -7 11 -15 15 -8 3 -15 12 -15
20 0 7 -7 16 -15 20 -8 3 -15 12 -15 21 0 8 -7 15 -15 15 -11 0 -4 -15 22 -50z"/>
<path d="M5540 3500 c-690 -3 -1265 -9 -1277 -14 -13 -4 -23 -13 -23 -18 0 -6
7 -8 15 -4 8 3 15 1 15 -4 0 -6 7 -10 15 -10 8 0 15 -4 15 -10 0 -6 29 -10 66
-10 58 0 65 2 54 15 -10 12 -16 13 -26 4 -10 -8 -18 -8 -27 0 -10 8 -17 7 -25
-1 -17 -17 -46 10 -31 28 7 9 16 11 23 6 15 -12 85 -12 92 -1 3 6 11 5 20 -2
10 -8 18 -9 27 0 8 6 17 8 21 4 11 -11 85 -12 92 -2 3 6 11 5 20 -2 10 -8 18
-8 27 0 10 8 17 7 25 -1 8 -8 15 -8 26 1 8 7 17 8 20 3 3 -5 24 -9 46 -9 22 0
43 4 46 9 3 5 12 4 20 -3 10 -8 18 -8 27 0 10 8 17 7 25 -1 9 -9 15 -9 23 -1
9 9 16 9 29 0 14 -8 22 -8 32 1 11 9 17 9 26 0 8 -8 15 -8 25 0 10 9 16 9 25
0 8 -8 15 -8 26 1 8 7 17 8 20 3 3 -5 24 -9 46 -9 22 0 43 4 46 9 3 5 12 4 20
-3 10 -8 18 -8 27 0 10 8 17 7 25 -1 8 -8 15 -8 26 1 8 7 17 8 20 3 3 -5 24
-9 46 -9 22 0 43 4 46 9 3 5 12 4 20 -3 11 -9 17 -9 28 0 8 7 17 8 20 3 3 -5
24 -9 46 -9 22 0 43 4 46 9 3 5 12 4 20 -3 10 -8 18 -8 27 0 10 8 17 7 25 -1
8 -8 15 -8 26 1 8 7 17 8 20 3 3 -5 24 -9 46 -9 22 0 43 4 46 9 3 5 12 4 20
-3 10 -8 18 -9 27 0 8 6 17 8 21 4 11 -11 85 -12 92 -2 3 6 11 5 20 -2 10 -8
18 -8 27 0 10 8 17 7 25 -1 8 -8 15 -8 26 1 8 7 17 8 20 3 3 -5 24 -9 46 -9
22 0 43 4 46 9 3 5 12 4 20 -3 10 -8 18 -8 27 0 10 8 17 7 25 -1 9 -9 15 -9
23 -1 9 9 16 9 29 0 14 -8 22 -8 32 1 11 9 17 9 26 0 8 -8 15 -8 25 0 10 9 16
9 25 0 8 -8 15 -8 26 1 8 7 17 8 20 3 3 -5 24 -9 46 -9 22 0 43 4 46 9 3 5 12
4 20 -3 10 -8 18 -8 27 0 10 8 17 7 25 -1 8 -8 15 -8 26 1 8 7 17 8 20 3 3 -5
24 -9 46 -9 22 0 43 4 46 9 3 5 12 4 20 -3 10 -8 17 -9 28 0 10 9 16 8 26 -3
17 -21 3 -37 -25 -30 -12 3 -25 1 -29 -4 -8 -14 125 -24 141 -11 16 14 17 51
1 67 -7 7 -23 11 -37 10 -15 -2 -591 -5 -1281 -8z"/>
<path d="M3089 3409 c-64 -67 -121 -175 -138 -257 -31 -152 1 -371 75 -512 51
-98 148 -193 230 -225 l39 -16 -30 23 c-92 69 -164 188 -191 318 -25 119 -2
243 60 325 34 44 33 54 -10 96 -20 18 -42 46 -50 61 -30 58 -9 137 57 213 52
59 18 39 -42 -26z"/>
<path d="M4320 3460 c0 -5 5 -10 10 -10 6 0 10 5 10 10 0 6 -4 10 -10 10 -5 0
-10 -4 -10 -10z"/>
<path d="M4370 3460 c0 -5 5 -10 10 -10 6 0 10 5 10 10 0 6 -4 10 -10 10 -5 0
-10 -4 -10 -10z"/>
<path d="M4420 3460 c0 -5 5 -10 10 -10 6 0 10 5 10 10 0 6 -4 10 -10 10 -5 0
-10 -4 -10 -10z"/>
<path d="M4470 3460 c0 -5 7 -10 15 -10 8 0 15 5 15 10 0 6 -7 10 -15 10 -8 0
-15 -4 -15 -10z"/>
<path d="M4530 3460 c0 -5 5 -10 10 -10 6 0 10 5 10 10 0 6 -4 10 -10 10 -5 0
-10 -4 -10 -10z"/>
<path d="M4580 3460 c0 -5 5 -10 10 -10 6 0 10 5 10 10 0 6 -4 10 -10 10 -5 0
-10 -4 -10 -10z"/>
<path d="M4630 3460 c0 -5 7 -10 15 -10 8 0 15 5 15 10 0 6 -7 10 -15 10 -8 0
-15 -4 -15 -10z"/>
<path d="M4690 3460 c0 -5 5 -10 10 -10 6 0 10 5 10 10 0 6 -4 10 -10 10 -5 0
-10 -4 -10 -10z"/>
<path d="M4740 3460 c0 -5 5 -10 10 -10 6 0 10 5 10 10 0 6 -4 10 -10 10 -5 0
-10 -4 -10 -10z"/>
<path d="M4790 3460 c0 -5 5 -10 10 -10 6 0 10 5 10 10 0 6 -4 10 -10 10 -5 0
-10 -4 -10 -10z"/>
<path d="M4840 3460 c0 -5 7 -10 15 -10 8 0 15 5 15 10 0 6 -7 10 -15 10 -8 0
-15 -4 -15 -10z"/>
<path d="M4900 3460 c0 -5 5 -10 10 -10 6 0 10 5 10 10 0 6 -4 10 -10 10 -5 0
-10 -4 -10 -10z"/>
<path d="M4950 3460 c0 -5 5 -10 10 -10 6 0 10 5 10 10 0 6 -4 10 -10 10 -5 0
-10 -4 -10 -10z"/>
<path d="M5000 3460 c0 -5 7 -10 15 -10 8 0 15 5 15 10 0 6 -7 10 -15 10 -8 0
-15 -4 -15 -10z"/>
<path d="M5060 3460 c0 -5 5 -10 10 -10 6 0 10 5 10 10 0 6 -4 10 -10 10 -5 0
-10 -4 -10 -10z"/>
<path d="M5110 3460 c0 -5 5 -10 10 -10 6 0 10 5 10 10 0 6 -4 10 -10 10 -5 0
-10 -4 -10 -10z"/>
<path d="M5160 3460 c0 -5 5 -10 10 -10 6 0 10 5 10 10 0 6 -4 10 -10 10 -5 0
-10 -4 -10 -10z"/>
<path d="M5210 3460 c0 -5 7 -10 15 -10 8 0 15 5 15 10 0 6 -7 10 -15 10 -8 0
-15 -4 -15 -10z"/>
<path d="M5270 3460 c0 -5 5 -10 10 -10 6 0 10 5 10 10 0 6 -4 10 -10 10 -5 0
-10 -4 -10 -10z"/>
<path d="M5320 3460 c0 -5 5 -10 10 -10 6 0 10 5 10 10 0 6 -4 10 -10 10 -5 0
-10 -4 -10 -10z"/>
<path d="M5370 3460 c0 -5 7 -10 15 -10 8 0 15 5 15 10 0 6 -7 10 -15 10 -8 0
-15 -4 -15 -10z"/>
<path d="M5430 3460 c0 -5 5 -10 10 -10 6 0 10 5 10 10 0 6 -4 10 -10 10 -5 0
-10 -4 -10 -10z"/>
<path d="M5480 3460 c0 -5 5 -10 10 -10 6 0 10 5 10 10 0 6 -4 10 -10 10 -5 0
-10 -4 -10 -10z"/>
<path d="M5530 3460 c0 -5 5 -10 10 -10 6 0 10 5 10 10 0 6 -4 10 -10 10 -5 0
-10 -4 -10 -10z"/>
<path d="M5580 3460 c0 -5 7 -10 15 -10 8 0 15 5 15 10 0 6 -7 10 -15 10 -8 0
-15 -4 -15 -10z"/>
<path d="M5640 3460 c0 -5 5 -10 10 -10 6 0 10 5 10 10 0 6 -4 10 -10 10 -5 0
-10 -4 -10 -10z"/>
<path d="M5690 3460 c0 -5 5 -10 10 -10 6 0 10 5 10 10 0 6 -4 10 -10 10 -5 0
-10 -4 -10 -10z"/>
<path d="M5740 3460 c0 -5 7 -10 15 -10 8 0 15 5 15 10 0 6 -7 10 -15 10 -8 0
-15 -4 -15 -10z"/>
<path d="M5800 3460 c0 -5 5 -10 10 -10 6 0 10 5 10 10 0 6 -4 10 -10 10 -5 0
-10 -4 -10 -10z"/>
<path d="M5850 3460 c0 -5 5 -10 10 -10 6 0 10 5 10 10 0 6 -4 10 -10 10 -5 0
-10 -4 -10 -10z"/>
<path d="M5900 3460 c0 -5 5 -10 10 -10 6 0 10 5 10 10 0 6 -4 10 -10 10 -5 0
-10 -4 -10 -10z"/>
<path d="M5950 3460 c0 -5 7 -10 15 -10 8 0 15 5 15 10 0 6 -7 10 -15 10 -8 0
-15 -4 -15 -10z"/>
<path d="M6010 3460 c0 -5 5 -10 10 -10 6 0 10 5 10 10 0 6 -4 10 -10 10 -5 0
-10 -4 -10 -10z"/>
<path d="M6060 3460 c0 -5 5 -10 10 -10 6 0 10 5 10 10 0 6 -4 10 -10 10 -5 0
-10 -4 -10 -10z"/>
<path d="M6110 3460 c0 -5 7 -10 15 -10 8 0 15 5 15 10 0 6 -7 10 -15 10 -8 0
-15 -4 -15 -10z"/>
<path d="M6170 3460 c0 -5 5 -10 10 -10 6 0 10 5 10 10 0 6 -4 10 -10 10 -5 0
-10 -4 -10 -10z"/>
<path d="M6220 3460 c0 -5 5 -10 10 -10 6 0 10 5 10 10 0 6 -4 10 -10 10 -5 0
-10 -4 -10 -10z"/>
<path d="M6270 3460 c0 -5 5 -10 10 -10 6 0 10 5 10 10 0 6 -4 10 -10 10 -5 0
-10 -4 -10 -10z"/>
<path d="M6320 3460 c0 -5 7 -10 15 -10 8 0 15 5 15 10 0 6 -7 10 -15 10 -8 0
-15 -4 -15 -10z"/>
<path d="M6380 3460 c0 -5 5 -10 10 -10 6 0 10 5 10 10 0 6 -4 10 -10 10 -5 0
-10 -4 -10 -10z"/>
<path d="M6430 3460 c0 -5 5 -10 10 -10 6 0 10 5 10 10 0 6 -4 10 -10 10 -5 0
-10 -4 -10 -10z"/>
<path d="M6480 3460 c0 -5 7 -10 15 -10 8 0 15 5 15 10 0 6 -7 10 -15 10 -8 0
-15 -4 -15 -10z"/>
<path d="M6540 3460 c0 -5 5 -10 10 -10 6 0 10 5 10 10 0 6 -4 10 -10 10 -5 0
-10 -4 -10 -10z"/>
<path d="M6590 3460 c0 -5 5 -10 10 -10 6 0 10 5 10 10 0 6 -4 10 -10 10 -5 0
-10 -4 -10 -10z"/>
<path d="M6640 3460 c0 -5 5 -10 10 -10 6 0 10 5 10 10 0 6 -4 10 -10 10 -5 0
-10 -4 -10 -10z"/>
<path d="M6690 3460 c0 -5 7 -10 15 -10 8 0 15 5 15 10 0 6 -7 10 -15 10 -8 0
-15 -4 -15 -10z"/>
<path d="M6750 3460 c0 -5 5 -10 10 -10 6 0 10 5 10 10 0 6 -4 10 -10 10 -5 0
-10 -4 -10 -10z"/>
<path d="M4505 3450 c-4 -7 -18 -9 -30 -6 -13 3 -27 2 -30 -4 -4 -6 30 -10 95
-10 65 0 99 4 95 10 -3 6 -17 7 -30 4 -12 -3 -26 -1 -30 6 -5 8 -10 8 -21 -1
-11 -9 -17 -9 -28 0 -11 9 -16 9 -21 1z"/>
<path d="M4660 3445 c-11 -13 -3 -15 65 -15 68 0 76 2 65 15 -10 12 -16 13
-26 4 -10 -8 -18 -8 -27 0 -10 8 -17 7 -25 -1 -8 -8 -15 -8 -25 1 -11 9 -17 8
-27 -4z"/>
<path d="M4875 3450 c-4 -7 -18 -9 -30 -6 -13 3 -27 2 -30 -4 -4 -6 30 -10 95
-10 65 0 99 4 95 10 -3 6 -17 7 -30 4 -12 -3 -26 -1 -30 6 -5 8 -10 8 -21 -1
-11 -9 -17 -9 -28 0 -11 9 -16 9 -21 1z"/>
<path d="M5030 3445 c-11 -13 8 -15 170 -15 162 0 181 2 170 15 -10 12 -16 13
-26 4 -10 -8 -18 -8 -27 0 -10 8 -17 7 -25 -1 -8 -8 -15 -8 -26 1 -8 7 -17 8
-20 3 -3 -5 -24 -9 -46 -9 -22 0 -43 4 -46 9 -3 5 -12 4 -20 -3 -10 -8 -18 -8
-27 0 -10 8 -17 7 -25 -1 -8 -8 -15 -8 -25 1 -11 9 -17 8 -27 -4z"/>
<path d="M5455 3450 c-3 -5 -17 -7 -30 -4 -12 3 -26 1 -29 -5 -5 -8 47 -11
175 -11 161 0 180 2 169 15 -10 12 -16 13 -27 4 -10 -9 -17 -9 -25 -1 -8 8
-15 9 -25 1 -9 -8 -17 -8 -27 0 -8 7 -17 8 -20 3 -3 -5 -24 -9 -46 -9 -22 0
-43 4 -46 9 -3 5 -12 4 -20 -3 -11 -9 -17 -9 -28 0 -10 8 -16 9 -21 1z"/>
<path d="M5825 3450 c-4 -7 -18 -9 -30 -6 -13 3 -27 2 -30 -4 -4 -6 30 -10 95
-10 65 0 99 4 95 10 -3 6 -17 7 -30 4 -12 -3 -26 -1 -30 6 -5 8 -10 8 -21 -1
-11 -9 -17 -9 -28 0 -11 9 -16 9 -21 1z"/>
<path d="M5980 3445 c-11 -13 -3 -15 65 -15 68 0 76 2 65 15 -10 12 -16 13
-26 4 -10 -8 -18 -8 -27 0 -10 8 -17 7 -25 -1 -8 -8 -15 -8 -25 1 -11 9 -17 8
-27 -4z"/>
<path d="M6195 3450 c-4 -7 -18 -9 -30 -6 -13 3 -27 2 -30 -4 -4 -6 30 -10 95
-10 65 0 99 4 95 10 -3 6 -17 7 -30 4 -12 -3 -26 -1 -30 6 -5 8 -10 8 -21 -1
-11 -9 -17 -9 -28 0 -11 9 -16 9 -21 1z"/>
<path d="M6350 3445 c-11 -13 8 -15 170 -15 162 0 181 2 170 15 -10 12 -16 13
-26 4 -10 -8 -18 -8 -27 0 -10 8 -17 7 -25 -1 -8 -8 -15 -8 -26 1 -8 7 -17 8
-20 3 -3 -5 -24 -9 -46 -9 -22 0 -43 4 -46 9 -3 5 -12 4 -20 -3 -10 -8 -18 -8
-27 0 -10 8 -17 7 -25 -1 -8 -8 -15 -8 -25 1 -11 9 -17 8 -27 -4z"/>
<path d="M2762 3353 c-16 -27 -40 -68 -53 -93 -13 -25 -34 -49 -47 -55 -12 -5
-22 -13 -22 -17 0 -8 41 -23 54 -20 5 2 6 -4 2 -13 -3 -9 -6 -35 -6 -58 0 -32
-3 -38 -12 -29 -7 7 -19 12 -28 12 -9 0 -21 5 -28 12 -8 8 -3 15 20 27 18 9
34 23 36 31 3 9 -5 5 -18 -8 -16 -17 -29 -22 -46 -18 -17 5 -24 2 -24 -7 0
-17 32 -47 49 -47 6 0 23 -7 36 -16 l25 -16 0 39 c0 55 33 177 69 256 16 37
28 67 26 67 -1 0 -16 -21 -33 -47z"/>
<path d="M6560 3353 c1 -70 12 -92 69 -129 31 -21 77 -55 103 -76 l46 -40 76
53 76 53 -33 34 c-17 19 -58 54 -89 78 l-56 44 -96 0 c-85 0 -96 -2 -96 -17z"/>
<path d="M5315 3351 c-102 -7 -141 -24 -180 -81 -42 -61 -57 -118 -59 -225 -1
-132 14 -185 73 -246 39 -39 55 -49 104 -59 57 -11 79 -10 167 12 59 14 63 19
45 54 -8 16 -15 55 -15 87 0 52 2 58 24 67 14 5 30 18 35 29 14 25 14 68 1 76
-5 3 -10 0 -10 -8 0 -22 -22 -27 -111 -27 -45 0 -94 -6 -113 -14 -57 -24 -66
-97 -15 -129 22 -14 49 -2 49 23 0 15 -6 19 -22 17 -17 -1 -23 3 -23 17 0 23
45 41 80 32 23 -6 25 -11 25 -72 0 -87 -10 -104 -61 -104 -56 0 -78 14 -101
68 -15 34 -22 75 -26 157 -5 123 8 210 39 249 43 55 149 37 149 -24 0 -17 -5
-30 -12 -30 -9 0 -9 -3 -1 -11 33 -33 83 34 63 85 -6 16 -8 37 -5 47 4 11 3
18 -2 17 -4 -1 -48 -4 -98 -7z"/>
<path d="M6445 3353 c-105 -4 -118 -8 -160 -45 -67 -58 -96 -143 -96 -279 0
-116 20 -179 76 -235 34 -34 54 -44 100 -54 59 -12 93 -9 184 16 50 14 52 16
37 33 -21 23 -23 171 -3 171 23 0 47 35 47 68 0 33 -14 43 -24 17 -4 -12 -25
-15 -95 -15 -129 0 -171 -21 -171 -85 0 -42 40 -76 69 -58 21 13 21 39 0 35
-9 -1 -22 4 -28 12 -23 28 52 60 88 37 21 -13 25 -91 8 -134 -15 -35 -18 -37
-62 -37 -88 0 -120 71 -120 265 0 93 4 131 18 168 28 70 93 98 146 61 20 -14
22 -23 18 -55 -4 -33 -2 -39 14 -39 31 0 53 44 43 87 -4 21 -7 46 -6 56 1 9 1
16 -1 15 -1 -1 -38 -3 -82 -5z"/>
<path d="M4305 3336 c-46 -20 -93 -80 -111 -143 -22 -74 -16 -278 10 -338 38
-89 131 -138 217 -115 98 27 135 82 151 225 16 152 -11 286 -68 336 -54 48
-137 62 -199 35z m27 -48 c-17 -17 -15 -78 5 -100 17 -19 63 -25 63 -8 0 6 -4
10 -10 10 -15 0 -12 46 5 60 20 17 54 3 67 -28 15 -37 14 -329 -2 -367 -39
-99 -137 -98 -171 3 -15 41 -19 294 -6 353 7 35 41 89 55 89 3 0 1 -5 -6 -12z"/>
<path d="M4620 3330 c19 -19 20 -33 20 -285 0 -252 -1 -266 -20 -285 -11 -11
-20 -23 -20 -26 0 -3 28 -3 63 0 34 3 86 6 115 6 75 -1 114 14 160 64 53 57
75 128 75 237 -1 151 -45 244 -136 288 -36 18 -62 21 -160 21 l-117 0 20 -20z
m228 -47 c44 -28 56 -75 56 -233 1 -157 -8 -202 -49 -240 -17 -16 -31 -21 -49
-16 -29 7 -45 48 -27 70 14 17 0 29 -23 20 -14 -6 -16 17 -16 211 l0 217 43
-7 c23 -4 53 -14 65 -22z"/>
<path d="M5776 3336 c18 -14 19 -29 19 -291 0 -252 -2 -278 -17 -289 -30 -22
-21 -26 49 -26 l67 0 -22 20 c-21 20 -22 27 -22 238 1 253 -15 260 130 -50 81
-174 95 -198 116 -198 l23 0 3 291 c3 274 4 291 22 305 18 13 13 14 -49 14
-66 0 -68 -1 -47 -16 21 -15 22 -20 22 -192 l0 -177 -81 175 c-66 142 -79 178
-70 192 10 17 5 18 -76 18 -77 0 -85 -2 -67 -14z"/>
<path d="M2803 3138 c2 -7 11 -12 18 -10 8 2 4 -7 -9 -21 -15 -16 -20 -27 -13
-32 11 -6 15 1 12 19 -1 5 5 4 13 -4 14 -11 16 -9 16 12 0 24 -16 48 -33 48
-5 0 -7 -6 -4 -12z"/>
<path d="M2805 3050 c-10 -11 -15 -23 -10 -28 4 -4 10 -1 12 6 3 6 9 10 14 6
5 -3 9 4 9 15 0 26 -2 26 -25 1z"/>
<path d="M2600 3045 c0 -8 6 -12 13 -9 7 2 21 -2 32 -11 20 -15 20 -15 -4 -35
-19 -16 -26 -18 -32 -8 -7 10 -9 8 -9 -4 0 -21 2 -21 34 -7 38 17 41 40 11 66
-30 27 -45 29 -45 8z"/>
<path d="M2518 3023 c-10 -2 -18 -8 -18 -13 0 -11 68 -25 77 -16 4 3 -7 6 -22
6 -34 0 -23 16 15 23 22 4 21 4 -5 4 -16 1 -38 -1 -47 -4z"/>
<path d="M2790 2980 c0 -5 5 -10 10 -10 6 0 10 5 10 10 0 6 -4 10 -10 10 -5 0
-10 -4 -10 -10z"/>
<path d="M2675 2966 c-11 -9 -27 -16 -36 -16 -19 0 -49 -31 -49 -49 0 -8 8
-11 20 -8 13 3 31 -3 48 -18 l27 -23 -30 -12 -30 -12 27 -10 c19 -7 42 -36 83
-109 31 -54 58 -99 60 -99 2 0 -9 30 -25 66 -39 87 -60 161 -68 240 -7 63 -8
64 -27 50z m18 -66 l7 -55 -26 33 c-14 17 -35 32 -46 32 -17 0 -18 2 -8 15 7
8 21 15 31 15 10 0 21 5 24 11 10 15 11 10 18 -51z"/>
<path d="M7706 2972 c-3 -5 -72 -7 -153 -4 -150 4 -357 -16 -393 -39 -11 -8
-7 -9 16 -5 192 31 268 38 383 33 99 -4 127 -8 137 -21 23 -32 72 -9 53 26
-10 19 -34 24 -43 10z"/>
<path d="M2816 2961 c-5 -7 -4 -17 2 -23 8 -8 6 -18 -5 -34 -18 -28 -9 -51 13
-33 15 12 17 52 5 83 -6 15 -10 16 -15 7z"/>
<path d="M7020 2943 c-41 -14 -78 -28 -82 -32 -4 -3 8 -47 26 -96 73 -193 68
-406 -12 -574 l-27 -56 -3 284 c-2 279 -2 285 19 307 l22 23 -67 -22 c-61 -19
-85 -37 -52 -37 7 0 16 -10 20 -22 10 -39 7 -333 -3 -322 -6 5 -44 70 -85 144
-71 129 -74 136 -59 159 8 13 11 22 6 20 -170 -70 -176 -73 -154 -80 21 -8 21
-11 21 -282 0 -262 -1 -275 -21 -301 -25 -32 -24 -32 49 0 59 25 60 26 41 45
-17 17 -19 36 -19 229 0 116 2 210 4 210 2 0 53 -85 112 -189 92 -163 111
-190 133 -193 24 -3 20 -9 -64 -93 -134 -134 -285 -233 -563 -368 l-147 -72
204 -3 204 -2 71 41 c269 159 427 304 508 463 34 67 77 188 79 220 1 16 4 13
10 -9 6 -22 7 -13 5 35 -2 40 -1 57 4 45 7 -16 9 -17 9 -3 1 9 4 25 7 35 4 13
3 15 -4 5 -6 -9 -11 30 -15 120 -5 141 -26 240 -72 343 -13 30 -25 55 -27 54
-2 0 -37 -12 -78 -26z"/>
<path d="M2792 2931 c2 -7 7 -12 11 -12 12 1 9 15 -3 20 -7 2 -11 -2 -8 -8z"/>
<path d="M7374 2930 c-77 -9 -204 -41 -204 -52 0 -5 7 -24 14 -43 13 -30 20
-35 47 -35 25 0 40 9 66 39 45 54 109 82 201 91 l77 7 -70 0 c-38 0 -97 -3
-131 -7z"/>
<path d="M7420 2890 c-10 -6 -2 -7 25 -3 49 7 58 13 19 13 -16 0 -36 -5 -44
-10z"/>
<path d="M7538 2893 c12 -2 32 -2 45 0 12 2 2 4 -23 4 -25 0 -35 -2 -22 -4z"/>
<path d="M7350 2844 c-21 -19 -42 -44 -45 -55 -4 -12 -16 -19 -33 -20 l-27 -1
25 -7 c21 -6 28 -3 42 25 10 18 34 46 55 63 21 17 34 31 30 31 -4 0 -25 -16
-47 -36z"/>
<path d="M6845 2834 c-91 -38 -255 -117 -251 -121 2 -2 53 18 112 45 60 27
131 57 157 67 26 10 50 22 53 26 8 13 -4 10 -71 -17z"/>
<path d="M7446 2840 c-42 -13 -95 -68 -107 -113 -12 -45 1 -95 32 -123 19 -17
19 -18 -30 -61 -65 -57 -94 -117 -93 -195 2 -137 98 -228 241 -228 73 0 106
12 149 53 70 67 82 161 32 240 -16 26 -37 50 -45 53 -26 10 -17 21 23 28 97
15 119 146 25 146 -29 0 -29 -7 -1 -30 21 -17 21 -19 5 -43 -11 -18 -40 -33
-97 -52 -118 -39 -170 -92 -170 -174 0 -71 89 -119 125 -68 15 21 14 23 -13
34 -36 15 -44 41 -25 81 28 57 98 69 144 23 23 -23 29 -38 29 -70 l0 -41 -26
17 c-27 17 -27 17 -19 -7 26 -78 -35 -140 -136 -140 -40 0 -128 49 -144 81
-52 99 30 266 148 301 20 6 43 18 50 26 10 12 7 19 -18 36 -58 41 -105 93
-105 118 0 41 27 68 68 68 49 0 82 -23 82 -59 0 -15 -5 -32 -11 -38 -17 -17
16 -23 40 -7 22 16 26 47 15 117 l-7 37 -66 -1 c-36 0 -79 -5 -95 -9z"/>
<path d="M7218 2773 c7 -3 16 -2 19 1 4 3 -2 6 -13 5 -11 0 -14 -3 -6 -6z"/>
<path d="M2810 2739 c7 -11 14 -18 17 -15 8 8 -5 36 -17 36 -7 0 -7 -6 0 -21z"/>
<path d="M7281 2733 c0 -6 -9 -14 -18 -16 -17 -4 -17 -5 0 -6 18 -1 25 -41 6
-41 -6 0 -3 -7 5 -16 19 -19 20 -31 4 -37 -7 -2 -5 -3 4 -2 32 5 26 -22 -12
-58 -21 -19 -36 -38 -33 -41 3 -3 23 14 43 37 32 36 36 45 27 62 -6 11 -14 45
-18 75 -3 30 -7 50 -8 43z"/>
<path d="M7218 2723 c7 -3 16 -2 19 1 4 3 -2 6 -13 5 -11 0 -14 -3 -6 -6z"/>
<path d="M4110 2663 c-25 -75 -61 -134 -128 -205 -71 -76 -70 -76 18 -18 61
41 119 101 168 172 38 55 39 64 10 71 -13 2 -30 8 -39 11 -13 6 -20 -1 -29
-31z"/>
<path d="M4419 2638 c-65 -139 -156 -253 -279 -344 l-89 -66 126 -147 c69 -80
129 -147 133 -149 16 -6 -13 116 -36 152 -24 35 -25 40 -10 54 9 9 35 17 59
19 23 1 85 13 137 28 78 22 119 27 230 28 166 2 216 -10 276 -67 30 -29 46
-55 54 -89 9 -34 17 -47 30 -47 29 0 167 48 324 113 l149 62 -7 104 c-3 57 -6
135 -6 173 0 58 -2 67 -13 56 -8 -7 -20 -30 -26 -51 -15 -46 -38 -48 -83 -8
-27 24 -33 36 -33 71 0 30 6 47 21 59 11 9 24 25 29 36 8 18 9 18 13 -7 2 -15
-4 -38 -12 -50 -21 -30 -20 -54 4 -78 26 -26 43 -26 35 0 -4 13 2 27 18 44 25
25 29 25 160 23 147 -2 167 -9 167 -58 0 -32 8 -36 32 -16 25 20 27 42 7 86
-10 23 -16 48 -13 56 8 20 24 9 24 -16 0 -10 7 -19 15 -19 25 0 38 -49 25 -93
-8 -28 -20 -42 -50 -57 -22 -11 -41 -20 -43 -20 -3 0 -10 20 -17 44 -7 25 -18
47 -26 50 -10 4 -13 -19 -16 -110 -2 -65 1 -114 6 -114 22 0 776 376 773 385
-4 11 -624 20 -665 10 -15 -4 -22 -11 -19 -19 8 -21 -37 -26 -212 -26 -180 0
-204 4 -196 31 6 18 -9 19 -483 19 l-489 0 -24 -52z m66 20 c-11 -6 -28 -18
-38 -27 -18 -15 -18 -14 -6 12 9 19 19 27 38 27 24 -1 25 -1 6 -12z m183 -20
c77 -47 88 -156 21 -212 -55 -46 -132 -30 -158 32 -14 33 -1 79 24 88 8 4 15
13 15 20 0 24 -47 -13 -58 -45 -15 -42 -4 -78 35 -111 81 -71 203 -7 203 108
0 52 -19 91 -60 126 l-32 26 194 0 c217 0 285 -11 350 -56 86 -60 147 -188
133 -277 -21 -121 -118 -207 -235 -207 -107 0 -190 79 -190 180 0 102 94 176
185 144 41 -14 49 -21 71 -71 12 -29 12 -37 0 -68 -8 -19 -26 -40 -40 -47 -23
-10 -36 -28 -21 -28 18 0 62 32 72 52 30 63 20 113 -35 158 -33 28 -42 31 -93
28 -68 -5 -114 -35 -140 -92 -22 -50 -24 -95 -5 -141 8 -19 13 -35 11 -35 -2
0 -34 7 -72 16 -39 9 -109 15 -166 15 -62 -1 -110 4 -131 13 -47 20 -104 73
-129 120 -25 49 -27 138 -4 183 21 40 81 91 115 99 15 3 32 7 37 9 20 5 70 -8
103 -27z m722 17 c0 -8 -9 -24 -19 -34 -11 -11 -25 -38 -31 -60 -19 -70 19
-128 98 -150 28 -8 32 -7 40 17 8 22 11 12 16 -58 4 -47 6 -105 4 -130 l-3
-45 -120 -52 c-141 -60 -310 -117 -323 -109 -5 3 -12 16 -15 28 -2 13 -7 30
-11 39 -6 13 2 15 54 11 72 -5 135 15 186 60 152 134 102 376 -101 487 -15 8
9 10 103 11 102 0 122 -2 122 -15z m880 -85 c-265 -134 -519 -254 -525 -249
-2 3 0 34 4 69 5 36 9 55 10 43 2 -33 16 -36 65 -14 53 23 80 61 79 108 -1 37
-29 103 -43 103 -6 0 -10 9 -10 20 0 20 6 20 308 19 l307 0 -195 -99z m-810
56 c0 -11 -19 -15 -25 -6 -3 5 1 10 9 10 9 0 16 -2 16 -4z m230 -26 c0 -27 -3
-30 -30 -30 -27 0 -30 3 -30 30 0 27 3 30 30 30 27 0 30 -3 30 -30z m110 20
c0 -5 -2 -10 -4 -10 -3 0 -8 5 -11 10 -3 6 -1 10 4 10 6 0 11 -4 11 -10z
m-190 -26 c0 -23 -3 -25 -32 -22 -25 2 -34 8 -36 26 -3 19 1 22 32 22 32 0 36
-3 36 -26z m-174 -49 c-4 -53 -11 -64 -24 -38 -7 13 -6 28 3 51 19 44 25 40
21 -13z m394 -17 c0 -15 -4 -29 -9 -32 -12 -8 -21 18 -21 62 0 34 1 35 15 16
8 -10 15 -31 15 -46z m-1452 -62 c1 -88 61 -183 139 -219 13 -6 23 -13 23 -16
0 -8 -165 -51 -210 -55 -54 -4 -56 -5 -83 -26 l-26 -21 29 -42 c26 -40 49 -97
37 -97 -4 0 -163 181 -195 221 -10 13 -4 21 43 53 60 42 192 175 221 224 10
18 19 32 20 32 1 0 2 -24 2 -54z"/>
<path d="M4778 2600 c9 -21 18 -35 20 -30 3 9 -25 70 -33 70 -2 0 4 -18 13
-40z"/>
<path d="M4940 2628 c0 -14 8 -18 33 -17 27 2 28 2 7 6 -14 3 -28 10 -32 17
-5 7 -8 5 -8 -6z"/>
<path d="M5058 2613 c6 -2 18 -2 25 0 6 3 1 5 -13 5 -14 0 -19 -2 -12 -5z"/>
<path d="M4610 2598 c0 -7 4 -19 9 -27 7 -10 9 -7 8 12 -2 26 -17 39 -17 15z"/>
<path d="M5129 2594 c19 -8 41 -19 48 -26 7 -6 13 -8 13 -4 0 10 -63 46 -80
46 -8 -1 0 -7 19 -16z"/>
<path d="M4640 2596 c0 -2 8 -10 18 -17 15 -13 16 -12 3 4 -13 16 -21 21 -21
13z"/>
<path d="M4462 2549 c-7 -11 -15 -44 -17 -72 -5 -52 -5 -52 5 -12 6 22 15 53
20 69 12 36 8 42 -8 15z"/>
<path d="M4626 2535 c-3 -8 -1 -15 4 -15 6 0 10 7 10 15 0 8 -2 15 -4 15 -2 0
-6 -7 -10 -15z"/>
<path d="M4682 2520 c0 -14 2 -19 5 -12 2 6 2 18 0 25 -3 6 -5 1 -5 -13z"/>
<path d="M5038 2533 c6 -2 18 -2 25 0 6 3 1 5 -13 5 -14 0 -19 -2 -12 -5z"/>
<path d="M4939 2499 l-24 -20 30 17 c39 24 40 24 28 24 -6 0 -21 -9 -34 -21z"/>
<path d="M4571 2489 c-1 -9 7 -23 17 -30 15 -12 16 -12 6 1 -6 8 -14 22 -17
30 -5 13 -6 12 -6 -1z"/>
<path d="M4460 2447 c0 -15 29 -63 47 -78 17 -13 17 -13 2 6 -9 11 -24 34 -32
50 -9 17 -16 26 -17 22z"/>
<path d="M4450 2414 c0 -6 7 -19 16 -30 14 -18 14 -18 3 6 -14 31 -19 36 -19
24z"/>
<path d="M5043 2413 c9 -2 23 -2 30 0 6 3 -1 5 -18 5 -16 0 -22 -2 -12 -5z"/>
<path d="M4739 2383 l-24 -28 28 24 c25 23 32 31 24 31 -2 0 -14 -12 -28 -27z"/>
<path d="M5090 2406 c0 -2 8 -10 18 -17 15 -13 16 -12 3 4 -13 16 -21 21 -21
13z"/>
<path d="M5231 2394 c0 -11 3 -14 6 -6 3 7 2 16 -1 19 -3 4 -6 -2 -5 -13z"/>
<path d="M5283 2370 c0 -25 2 -35 4 -22 2 12 2 32 0 45 -2 12 -4 2 -4 -23z"/>
<path d="M4979 2383 c-13 -16 -12 -17 4 -4 16 13 21 21 13 21 -2 0 -10 -8 -17
-17z"/>
<path d="M4841 2364 c0 -11 3 -14 6 -6 3 7 2 16 -1 19 -3 4 -6 -2 -5 -13z"/>
<path d="M5122 2345 c0 -16 2 -22 5 -12 2 9 2 23 0 30 -3 6 -5 -1 -5 -18z"/>
<path d="M5241 2354 c0 -11 3 -14 6 -6 3 7 2 16 -1 19 -3 4 -6 -2 -5 -13z"/>
<path d="M4514 2331 c7 -11 46 -35 46 -28 0 3 -12 12 -26 22 -15 9 -23 12 -20
6z"/>
<path d="M4578 2333 c6 -2 18 -2 25 0 6 3 1 5 -13 5 -14 0 -19 -2 -12 -5z"/>
<path d="M4638 2333 c6 -2 18 -2 25 0 6 3 1 5 -13 5 -14 0 -19 -2 -12 -5z"/>
<path d="M4951 2314 c0 -11 3 -14 6 -6 3 7 2 16 -1 19 -3 4 -6 -2 -5 -13z"/>
<path d="M5271 2310 c-1 -9 -12 -32 -26 -53 -14 -20 -23 -37 -21 -37 12 0 58
80 53 92 -4 9 -6 9 -6 -2z"/>
<path d="M4730 2306 c0 -2 7 -6 15 -10 8 -3 15 -1 15 4 0 6 -7 10 -15 10 -8 0
-15 -2 -15 -4z"/>
<path d="M5101 2287 c-13 -21 -12 -21 5 -5 10 10 16 20 13 22 -3 3 -11 -5 -18
-17z"/>
<path d="M4698 2293 c7 -3 16 -2 19 1 4 3 -2 6 -13 5 -11 0 -14 -3 -6 -6z"/>
<path d="M4613 2283 c9 -2 25 -2 35 0 9 3 1 5 -18 5 -19 0 -27 -2 -17 -5z"/>
<path d="M4760 2270 c0 -6 7 -10 15 -10 8 0 15 2 15 4 0 2 -7 6 -15 10 -8 3
-15 1 -15 -4z"/>
<path d="M4832 2265 c-11 -12 -10 -15 3 -15 8 0 15 7 15 15 0 18 -2 18 -18 0z"/>
<path d="M5052 2230 c-18 -17 -29 -30 -24 -30 5 0 21 14 37 30 37 38 30 38
-13 0z"/>
<path d="M5189 2233 l-24 -28 28 24 c15 14 27 26 27 28 0 8 -8 1 -31 -24z"/>
<path d="M5130 2190 c8 -5 20 -10 25 -10 6 0 3 5 -5 10 -8 5 -19 10 -25 10 -5
0 -3 -5 5 -10z"/>
<path d="M5070 2180 c8 -5 24 -10 35 -10 17 0 17 2 5 10 -8 5 -24 10 -35 10
-17 0 -17 -2 -5 -10z"/>
<path d="M5295 2620 c23 -26 32 -25 45 3 11 22 11 22 -5 2 -15 -19 -17 -19
-29 -2 -7 9 -17 17 -21 17 -5 0 0 -9 10 -20z"/>
<path d="M5401 2363 c1 -22 2 -23 6 -8 3 11 10 23 17 27 7 5 5 8 -6 8 -13 0
-18 -7 -17 -27z"/>
<path d="M5458 2333 c5 -83 9 -90 11 -20 0 37 -2 67 -7 67 -4 0 -6 -21 -4 -47z"/>
<path d="M5391 2294 c0 -11 3 -14 6 -6 3 7 2 16 -1 19 -3 4 -6 -2 -5 -13z"/>
<path d="M5360 2220 c-6 -11 -8 -20 -6 -20 3 0 10 9 16 20 6 11 8 20 6 20 -3
0 -10 -9 -16 -20z"/>
<path d="M5410 2190 c-8 -5 -10 -10 -5 -10 6 0 17 5 25 10 8 5 11 10 5 10 -5
0 -17 -5 -25 -10z"/>
<path d="M5320 2165 c-13 -14 -18 -25 -12 -25 7 0 12 5 12 11 0 5 4 7 10 4 5
-3 18 -1 27 5 15 9 14 10 -7 4 -22 -6 -23 -5 -11 10 21 25 7 19 -19 -9z"/>
<path d="M5890 2631 c0 -6 5 -13 12 -17 7 -4 8 -3 4 5 -6 9 44 12 214 10 122
0 224 2 227 5 4 3 -98 6 -225 6 -138 0 -232 -4 -232 -9z"/>
<path d="M5990 2470 c-88 -46 -97 -48 -76 -18 9 12 16 29 16 38 -1 8 -7 1 -14
-16 -17 -38 -57 -71 -107 -86 -22 -6 -39 -15 -39 -20 0 -4 3 -8 8 -8 12 0 308
148 297 149 -5 0 -44 -18 -85 -39z"/>
<path d="M4325 2400 c3 -5 8 -10 11 -10 2 0 4 5 4 10 0 6 -5 10 -11 10 -5 0
-7 -4 -4 -10z"/>
<path d="M4265 2338 l-50 -53 53 50 c28 27 52 51 52 52 0 8 -9 -1 -55 -49z"/>
<path d="M4410 2265 c19 -19 36 -35 39 -35 3 0 -10 16 -29 35 -19 19 -36 35
-39 35 -3 0 10 -16 29 -35z"/>
<path d="M4184 2268 l-19 -23 23 19 c21 18 27 26 19 26 -2 0 -12 -10 -23 -22z"/>
<path d="M4136 2235 c-17 -13 -18 -17 -6 -28 8 -6 11 -8 7 -3 -4 5 0 18 10 28
19 22 15 23 -11 3z"/>
<path d="M4298 2203 c7 -3 16 -2 19 1 4 3 -2 6 -13 5 -11 0 -14 -3 -6 -6z"/>
<path d="M4162 2165 c27 -29 28 -29 45 -10 17 18 17 18 0 5 -15 -11 -21 -10
-45 11 l-27 23 27 -29z"/>
<path d="M4299 2588 c0 -17 -2 -19 -7 -8 -13 28 -37 15 -81 -44 -110 -146
-283 -247 -496 -291 l-30 -7 25 -18 c27 -20 48 -16 29 6 -14 17 -5 18 24 3
l21 -12 -23 -9 c-13 -5 -21 -11 -18 -14 3 -4 14 -3 24 1 10 5 22 7 26 6 5 -1
26 4 48 10 39 12 53 29 24 29 -8 0 -15 -5 -15 -11 0 -5 -8 -9 -17 -7 -10 1
-25 -1 -33 -6 -8 -5 -12 -6 -8 -1 4 4 3 14 -3 22 -14 16 -5 17 23 2 14 -8 23
-8 31 0 8 8 7 11 -3 11 -7 0 -11 2 -8 5 3 3 17 1 31 -4 30 -12 41 -4 24 17
-10 13 -9 15 6 9 10 -4 24 -7 30 -7 7 0 4 -5 -5 -11 -25 -14 -23 -32 2 -19 22
12 27 45 8 54 -7 3 -4 4 7 3 15 -2 19 -9 17 -25 -3 -21 -1 -22 17 -10 13 8 16
15 9 19 -7 4 -6 8 3 12 12 4 11 7 -1 16 -12 9 -9 11 15 10 17 0 24 -3 18 -6
-7 -2 -13 -11 -13 -19 0 -11 4 -12 19 -4 22 11 22 37 0 51 -10 6 -7 8 13 7 22
-2 25 -5 17 -20 -11 -20 1 -24 19 -6 18 18 15 51 -3 44 -8 -3 -15 -1 -15 4 0
6 9 10 20 10 11 0 20 7 20 15 0 8 9 15 19 15 11 0 21 7 23 16 2 9 14 18 28 20
49 7 60 10 73 23 10 11 5 12 -28 8 -40 -6 -40 -6 -7 5 17 6 32 15 32 21 0 5
-7 7 -15 3 -8 -3 -15 -1 -15 4 0 6 6 10 14 10 8 0 20 2 28 3 7 2 10 2 6 0 -5
-3 -8 -12 -8 -21 1 -19 37 20 70 76 16 26 17 32 5 32 -9 0 -15 -10 -16 -22z
m-25 -32 c-3 -9 -12 -12 -22 -9 -15 6 -9 11 25 22 1 1 0 -5 -3 -13z"/>
<path d="M6330 2538 c-139 -69 -209 -227 -198 -447 8 -166 54 -213 172 -179
59 17 165 126 189 194 36 104 41 341 7 403 -28 54 -96 65 -170 29z m93 -108
c15 -59 3 -328 -18 -378 -22 -55 -67 -92 -110 -92 -52 0 -60 33 -60 235 0 153
2 175 22 218 12 26 25 47 28 47 3 0 1 -9 -5 -19 -14 -27 -13 -54 4 -76 12 -16
17 -17 45 -6 33 14 42 31 16 31 -21 0 -19 23 6 54 29 37 60 31 72 -14z"/>
<path d="M6330 2285 c-14 -8 -20 -14 -15 -14 6 0 21 6 35 14 14 8 21 14 15 14
-5 0 -21 -6 -35 -14z"/>
<path d="M6350 2245 c-14 -8 -20 -14 -14 -15 5 0 19 7 30 15 24 18 16 19 -16
0z"/>
<path d="M6310 2030 c-8 -5 -10 -10 -5 -10 6 0 17 5 25 10 8 5 11 10 5 10 -5
0 -17 -5 -25 -10z"/>
<path d="M5555 2255 c8 -377 21 -587 38 -653 22 -83 32 -83 54 0 17 66 30 276
38 653 l7 291 -72 0 -72 0 7 -291z m54 -144 c-1 -570 -30 -455 -43 175 l-6
251 25 -5 25 -4 -1 -417z m59 77 c-5 -226 -12 -367 -22 -413 -13 -65 -14 -40
-15 343 l-1 412 23 0 22 0 -7 -342z"/>
<path d="M7225 2489 c-4 -6 -5 -12 -2 -15 2 -3 7 2 10 11 7 17 1 20 -8 4z"/>
<path d="M6110 2430 c-19 -11 -31 -19 -27 -20 11 0 67 29 67 35 0 7 -1 7 -40
-15z"/>
<path d="M4170 2423 c0 -15 -2 -16 -10 -3 -9 13 -11 13 -20 0 -5 -8 -10 -24
-10 -34 0 -17 5 -15 35 14 40 39 41 40 20 40 -8 0 -15 -8 -15 -17z"/>
<path d="M4096 2378 c-9 -36 -7 -41 9 -28 16 13 21 50 6 50 -5 0 -11 -10 -15
-22z"/>
<path d="M5940 2339 c-47 -28 -97 -62 -113 -77 -40 -38 -77 -119 -77 -166 1
-65 19 -81 132 -110 72 -19 118 -52 118 -86 0 -51 -67 -138 -122 -159 -21 -8
-31 -6 -49 8 -19 15 -21 23 -15 56 5 24 19 49 38 67 38 36 31 45 -17 22 -63
-30 -109 -120 -93 -181 36 -137 348 80 348 242 0 76 -33 108 -145 140 -87 24
-105 38 -105 81 0 51 55 107 102 102 32 -3 33 -5 32 -45 -1 -38 1 -41 19 -32
29 16 50 76 41 118 -5 20 -7 44 -6 54 1 9 1 17 -1 16 -1 0 -40 -23 -87 -50z"/>
<path d="M6090 2370 c-8 -5 -10 -10 -5 -10 6 0 17 5 25 10 8 5 11 10 5 10 -5
0 -17 -5 -25 -10z"/>
<path d="M7875 2340 c-57 -13 -112 -49 -164 -106 -92 -100 -124 -192 -125
-356 -1 -102 -1 -105 -15 -70 -60 155 -234 272 -402 272 -92 0 -77 -17 20 -22
114 -7 196 -45 274 -127 87 -91 125 -188 112 -283 l-7 -48 -836 0 -837 1 60
31 c119 62 463 222 587 273 108 45 187 85 167 85 -4 0 -71 -27 -150 -59 -153
-62 -360 -159 -679 -315 l-195 -95 1247 -1 1247 0 11 -41 c7 -23 22 -59 35
-79 24 -38 104 -94 150 -106 14 -3 25 -10 25 -14 0 -4 -29 -22 -66 -40 -80
-41 -119 -84 -139 -155 l-16 -55 -470 0 c-406 0 -469 2 -469 15 0 9 -6 12 -16
8 -23 -9 -34 15 -34 78 0 68 26 272 41 317 12 36 49 64 49 37 0 -8 5 -15 10
-15 15 0 12 30 -4 36 -17 6 -76 -22 -76 -36 0 -6 -11 -8 -24 -4 -13 3 -27 1
-30 -5 -4 -6 0 -11 10 -11 15 0 16 -9 10 -92 -4 -51 -11 -109 -15 -128 l-8
-35 -21 69 c-24 74 -29 113 -12 86 7 -11 12 -12 20 -4 8 8 6 15 -5 24 -27 23
-46 0 -66 -78 -29 -117 -35 -117 -49 -1 -7 57 -14 122 -14 144 l-1 40 -69 18
c-62 16 -70 16 -92 2 -39 -26 -22 -82 22 -73 24 4 31 30 8 26 -13 -2 -19 3
-19 17 0 16 6 20 34 18 18 -1 42 -10 53 -20 24 -24 41 -123 22 -123 -10 0 -7
-10 8 -36 30 -51 39 -232 13 -254 -14 -12 -18 -12 -25 0 -7 12 -10 11 -16 -3
-6 -16 -50 -17 -663 -16 -372 0 -647 4 -635 9 12 4 31 21 44 37 19 25 21 35
16 93 -4 36 -7 75 -7 88 -1 24 -9 28 -25 12 -11 -11 -97 83 -108 118 -10 29
17 72 44 72 32 0 50 -28 48 -76 -1 -25 4 -50 9 -55 12 -12 33 -4 33 12 0 6 -5
7 -11 3 -8 -5 -10 4 -5 30 3 20 9 52 12 71 4 23 2 35 -5 35 -6 0 -11 -7 -11
-15 0 -19 -5 -19 -35 1 -32 21 -89 11 -110 -19 -8 -12 -15 -36 -15 -54 0 -18
-4 -33 -9 -33 -5 0 22 -30 61 -67 77 -74 98 -107 98 -150 -1 -61 -72 -104
-107 -64 -16 20 -18 20 -24 4 -5 -15 -10 -12 -28 17 -11 19 -21 45 -21 58 0
27 33 62 59 62 22 0 51 -25 51 -44 0 -18 -21 -35 -36 -29 -8 3 -14 -1 -14 -11
0 -21 46 -32 65 -16 22 19 19 76 -6 101 -17 17 -29 20 -58 15 -42 -6 -68 -34
-77 -81 -4 -21 -13 -35 -25 -38 -10 -3 -19 -12 -19 -20 0 -10 7 -13 18 -10 11
2 40 -9 67 -26 l48 -30 -144 -4 c-79 -1 513 -2 1316 -2 l1460 0 6 35 c7 46 30
89 66 122 37 35 124 78 157 78 28 0 146 -55 146 -68 0 -4 -29 -6 -65 -4 -81 5
-138 -14 -188 -65 -20 -19 -41 -51 -48 -70 -10 -30 -9 -37 10 -57 28 -30 27
-62 -4 -82 -33 -22 -72 -11 -93 26 l-17 30 -359 0 c-299 0 -357 2 -347 13 12
15 5 27 -17 27 -9 0 -13 -7 -9 -20 4 -16 0 -20 -23 -20 -23 0 -27 4 -23 20 4
14 0 20 -12 20 -12 0 -16 -6 -12 -20 5 -19 0 -20 -65 -20 -58 0 -68 2 -59 13
12 15 5 27 -17 27 -9 0 -13 -7 -9 -20 4 -16 0 -20 -23 -20 -23 0 -27 4 -23 20
4 13 0 20 -9 20 -22 0 -29 -12 -17 -27 9 -11 -2 -13 -66 -13 -64 0 -75 2 -66
13 12 15 5 27 -17 27 -9 0 -13 -7 -9 -20 4 -16 0 -20 -23 -20 -23 0 -27 4 -23
20 4 14 0 20 -12 20 -12 0 -16 -6 -12 -20 4 -16 0 -20 -23 -20 -23 0 -27 4
-23 20 4 13 0 20 -9 20 -22 0 -29 -12 -17 -27 9 -11 -1 -13 -59 -13 -65 0 -70
1 -65 20 4 14 0 20 -12 20 -12 0 -16 -6 -12 -20 5 -19 0 -20 -103 -20 -103 0
-108 1 -103 20 4 14 0 20 -12 20 -12 0 -16 -6 -12 -20 4 -16 0 -20 -23 -20
-23 0 -27 4 -23 20 4 13 0 20 -9 20 -22 0 -29 -12 -17 -27 9 -11 -1 -13 -59
-13 -65 0 -70 1 -65 20 4 14 0 20 -12 20 -12 0 -16 -6 -12 -20 5 -19 0 -20
-103 -20 -103 0 -108 1 -103 20 4 14 0 20 -12 20 -12 0 -16 -6 -12 -20 4 -16
0 -20 -23 -20 -23 0 -27 4 -23 20 4 14 0 20 -12 20 -12 0 -16 -6 -12 -20 5
-19 0 -20 -63 -20 -63 0 -68 1 -63 20 4 14 0 20 -12 20 -12 0 -16 -6 -12 -20
5 -19 0 -20 -103 -20 -103 0 -108 1 -103 20 4 14 0 20 -12 20 -12 0 -16 -6
-12 -20 4 -16 0 -20 -23 -20 -23 0 -27 4 -23 20 4 14 0 20 -12 20 -12 0 -16
-6 -12 -20 5 -19 0 -20 -63 -20 -63 0 -68 1 -63 20 4 14 0 20 -12 20 -12 0
-16 -6 -12 -20 5 -18 0 -20 -44 -20 -27 0 -49 -4 -49 -10 0 -7 490 -10 1450
-10 l1450 0 15 -23 c16 -24 55 -47 80 -47 8 0 26 10 41 23 31 27 35 68 9 97
-25 28 -12 67 40 117 56 53 124 70 202 50 50 -13 52 -13 55 7 3 21 18 27 211
81 32 9 56 19 53 22 -3 3 -62 22 -133 42 -110 32 -128 40 -131 58 -3 19 -6 21
-30 12 -43 -17 -127 -12 -174 9 -76 33 -127 114 -95 150 31 36 30 60 -3 93
-26 26 -36 30 -63 25 -18 -3 -43 -19 -57 -37 l-26 -30 -53 21 c-104 41 -197
124 -242 217 -31 65 -31 150 2 197 22 33 27 35 73 33 46 -2 51 0 65 27 12 26
12 33 0 55 -32 58 -141 27 -208 -58 -98 -124 -119 -307 -55 -476 5 -11 0 -15
-19 -15 -22 0 -26 6 -36 58 -31 160 -21 290 33 407 27 59 95 134 146 160 31
16 33 16 54 -4 29 -27 42 -26 71 4 31 30 32 57 3 88 -26 29 -60 38 -103 27z
m88 -27 c29 -34 26 -80 -8 -95 -19 -8 -28 -8 -40 2 -20 16 -19 49 1 57 22 8
42 -13 26 -29 -6 -6 -15 -8 -19 -4 -4 4 -1 11 7 16 13 8 12 10 -2 10 -12 0
-18 -8 -18 -21 0 -15 5 -20 23 -17 16 2 22 10 22 28 0 20 -6 26 -27 28 -18 2
-30 -3 -37 -16 -6 -11 -30 -31 -54 -45 -53 -31 -118 -101 -146 -156 -56 -108
-66 -285 -26 -443 6 -22 4 -28 -9 -28 -9 0 -16 2 -16 4 0 2 -10 41 -21 87 -26
99 -30 246 -10 329 42 171 174 306 302 309 22 1 42 -6 52 -16z m6 -152 c19
-12 17 -62 -5 -78 -9 -7 -20 -10 -23 -7 -3 3 0 9 8 13 21 13 9 56 -17 59 -27
4 -40 -23 -23 -50 11 -17 10 -19 -7 -14 -42 14 -94 -81 -94 -171 0 -103 59
-196 187 -291 l30 -22 -140 3 -140 2 -19 55 c-15 40 -20 83 -20 160 -1 98 1
110 30 171 62 131 170 210 233 170z m-24 -459 c32 -29 78 -64 104 -77 37 -19
41 -24 23 -25 -58 -1 -242 179 -242 237 0 4 13 -13 28 -38 16 -24 55 -68 87
-97z m-322 -74 c6 -23 4 -28 -12 -28 -17 0 -19 7 -18 72 l1 72 11 -45 c7 -24
15 -56 18 -71z m655 6 c28 -19 28 -51 1 -80 -19 -20 -20 -26 -9 -58 13 -41 74
-99 127 -122 27 -11 57 -14 106 -11 37 2 67 0 67 -5 0 -12 -120 -68 -145 -68
-30 0 -117 43 -156 78 -35 30 -62 80 -73 135 l-6 27 -1218 0 c-685 0 -1211 4
-1203 9 7 5 22 6 32 4 12 -4 19 0 19 10 0 8 7 18 16 21 25 10 34 7 28 -8 -6
-16 11 -30 26 -21 8 5 7 11 -1 21 -9 12 -5 14 27 14 28 0 35 -3 24 -10 -11 -7
-12 -12 -3 -21 14 -14 36 -2 29 17 -4 10 4 14 31 14 29 0 33 -2 24 -14 -8 -10
-9 -16 -1 -21 15 -9 32 5 26 21 -4 10 3 14 23 14 24 0 28 -3 24 -20 -4 -14 0
-20 12 -20 12 0 16 6 12 20 -4 17 0 20 31 20 27 0 33 -3 22 -10 -11 -7 -12
-12 -3 -21 14 -14 36 -2 29 17 -4 10 3 14 23 14 24 0 28 -3 24 -20 -4 -14 0
-20 12 -20 12 0 16 6 12 20 -4 17 0 20 24 20 20 0 27 -4 23 -14 -6 -16 11 -30
26 -21 8 5 7 11 -1 21 -9 12 -5 14 27 14 28 0 35 -3 24 -10 -11 -7 -12 -12 -3
-21 14 -14 36 -2 29 17 -4 10 3 14 23 14 24 0 28 -3 24 -20 -4 -14 0 -20 12
-20 12 0 16 6 12 20 -4 17 0 20 28 20 28 0 32 -3 28 -20 -4 -14 0 -20 12 -20
12 0 16 6 12 20 -5 19 0 20 63 20 63 0 68 -1 63 -20 -4 -14 0 -20 12 -20 12 0
16 6 12 20 -4 17 0 20 24 20 20 0 27 -4 23 -14 -6 -16 11 -30 26 -21 8 5 7 11
-1 21 -9 12 -5 14 27 14 28 0 35 -3 24 -10 -11 -7 -12 -12 -3 -21 14 -14 36
-2 29 17 -4 10 3 14 23 14 24 0 28 -3 24 -20 -4 -14 0 -20 12 -20 12 0 16 6
12 20 -4 17 0 20 24 20 20 0 27 -4 23 -14 -6 -16 11 -30 26 -21 8 5 7 11 -1
21 -10 12 0 14 66 14 66 0 76 -2 66 -14 -8 -10 -9 -16 -1 -21 15 -9 32 5 26
21 -4 10 3 14 24 14 21 0 28 -4 24 -14 -6 -16 11 -30 26 -21 8 5 7 11 -1 21
-9 12 -5 14 27 14 28 0 35 -3 24 -10 -11 -7 -12 -12 -3 -21 14 -14 36 -2 29
17 -4 10 3 14 23 14 24 0 28 -3 24 -20 -4 -14 0 -20 12 -20 12 0 16 6 12 20
-4 17 0 20 24 20 20 0 27 -4 23 -14 -6 -16 11 -30 26 -21 8 5 7 11 -1 21 -9
12 -5 14 27 14 28 0 35 -3 24 -10 -11 -7 -12 -12 -3 -21 14 -14 36 -2 29 17
-4 10 3 14 23 14 24 0 28 -3 24 -20 -4 -14 0 -20 12 -20 12 0 16 6 12 20 -5
19 0 20 63 20 63 0 68 -1 63 -20 -4 -14 0 -20 12 -20 12 0 16 6 12 20 -4 16 0
20 23 20 23 0 27 -4 23 -20 -4 -14 0 -20 12 -20 12 0 16 6 12 20 -5 19 0 20
65 20 60 0 69 -2 59 -14 -8 -10 -9 -16 -1 -21 15 -9 32 5 26 21 -4 10 3 14 23
14 24 0 28 -3 24 -20 -4 -14 0 -20 12 -20 12 0 16 6 12 20 -4 16 0 20 19 20
16 0 22 -4 18 -14 -6 -16 11 -30 26 -21 8 5 7 11 -1 21 -9 12 -6 14 19 14 22
0 36 9 56 35 30 39 58 44 94 19z m539 -358 c2 -1 -49 -17 -113 -36 l-115 -33
-60 29 c-33 15 -63 32 -65 36 -2 3 23 22 57 41 l61 35 116 -35 c65 -19 118
-36 119 -37z m-1697 -82 c23 -76 24 -88 9 -78 -7 4 -10 1 -7 -7 3 -8 12 -13
22 -11 9 2 16 -3 16 -9 0 -7 10 -23 22 -36 l21 -23 -108 0 -108 0 21 23 c12
13 22 29 22 36 0 6 7 11 16 9 10 -2 19 3 22 11 3 8 0 11 -7 7 -6 -4 -11 -4
-11 0 0 10 43 144 47 144 1 0 11 -30 23 -66z"/>
<path d="M7777 2013 c-40 -62 -50 -107 -45 -207 3 -62 12 -106 26 -139 l21
-47 87 0 87 0 -55 58 c-31 32 -66 78 -78 102 -28 54 -37 152 -21 216 7 25 10
49 7 51 -2 3 -16 -12 -29 -34z"/>
<path d="M8214 1606 c-3 -9 -4 -22 -1 -30 3 -7 0 -19 -6 -25 -8 -8 -8 -14 0
-22 14 -14 36 -1 29 17 -3 7 2 17 10 22 9 5 14 17 12 28 -4 24 -36 31 -44 10z"/>
<path d="M8150 1570 c-12 -7 -12 -12 -2 -22 9 -9 15 -9 24 0 16 16 -2 34 -22
22z"/>
<path d="M6613 1558 c2 -7 10 -13 17 -13 7 0 15 6 18 13 2 7 -5 12 -18 12 -13
0 -20 -5 -17 -12z"/>
<path d="M7063 1558 c2 -7 10 -13 17 -13 7 0 15 6 18 13 2 7 -5 12 -18 12 -13
0 -20 -5 -17 -12z"/>
<path d="M7653 1558 c2 -7 10 -13 17 -13 7 0 15 6 18 13 2 7 -5 12 -18 12 -13
0 -20 -5 -17 -12z"/>
<path d="M7873 1558 c2 -7 10 -13 17 -13 7 0 15 6 18 13 2 7 -5 12 -18 12 -13
0 -20 -5 -17 -12z"/>
<path d="M8217 1494 c-9 -10 2 -24 19 -24 8 0 14 7 14 15 0 15 -21 21 -33 9z"/>
<path d="M8244 1439 c-3 -6 -1 -16 5 -22 9 -9 14 -8 21 3 9 15 4 30 -10 30 -5
0 -12 -5 -16 -11z"/>
<path d="M8280 1390 c0 -13 5 -20 13 -17 6 2 12 10 12 17 0 7 -6 15 -12 18 -8
2 -13 -5 -13 -18z"/>
<path d="M8327 1365 c-8 -18 11 -31 25 -17 11 11 3 32 -12 32 -4 0 -10 -7 -13
-15z"/>
<path d="M8380 1335 c0 -10 7 -15 18 -13 21 4 19 22 -2 26 -10 2 -16 -3 -16
-13z"/>
<path d="M8434 1339 c-10 -17 13 -36 27 -22 12 12 4 33 -11 33 -5 0 -12 -5
-16 -11z"/>
<path d="M8531 1300 l-52 -26 51 -24 51 -24 72 19 c40 10 79 21 87 26 18 9 19
9 -86 37 l-72 19 -51 -27z m127 -7 l57 -17 -64 -19 c-64 -20 -64 -20 -105 1
l-41 20 35 16 c45 19 50 19 118 -1z"/>
<path d="M7201 2284 c0 -11 3 -14 6 -6 3 7 2 16 -1 19 -3 4 -6 -2 -5 -13z"/>
<path d="M7210 2246 c0 -8 4 -17 9 -20 5 -4 7 3 4 14 -6 23 -13 26 -13 6z"/>
<path d="M3360 2240 c0 -5 5 -10 10 -10 6 0 10 5 10 10 0 6 -4 10 -10 10 -5 0
-10 -4 -10 -10z"/>
<path d="M3412 2215 c2 -19 8 -25 26 -25 13 0 20 4 17 10 -3 6 -13 10 -20 10
-9 0 -12 6 -9 15 4 8 1 15 -5 15 -6 0 -10 -11 -9 -25z"/>
<path d="M3540 2225 c10 -12 16 -13 26 -4 10 8 18 8 27 0 10 -8 17 -7 25 1 8
8 15 8 25 -1 11 -9 17 -8 27 4 11 13 3 15 -65 15 -68 0 -76 -2 -65 -15z"/>
<path d="M3460 2222 c0 -24 14 -42 32 -42 11 0 18 5 15 13 -2 6 -10 11 -16 10
-6 -2 -10 2 -8 8 1 6 -4 14 -10 16 -7 3 -13 0 -13 -5z"/>
<path d="M3514 2204 c3 -9 6 -18 6 -20 0 -2 12 -4 28 -4 l27 0 -25 20 c-30 24
-44 25 -36 4z"/>
<path d="M3566 2211 c-4 -5 -2 -12 3 -15 5 -4 12 -2 15 3 4 5 2 12 -3 15 -5 4
-12 2 -15 -3z"/>
<path d="M3617 2213 c-12 -12 15 -33 42 -33 22 1 24 2 8 11 -9 5 -22 7 -27 4
-6 -3 -7 1 -4 9 6 16 -7 22 -19 9z"/>
<path d="M3670 2210 c0 -5 5 -10 10 -10 6 0 10 5 10 10 0 6 -4 10 -10 10 -5 0
-10 -4 -10 -10z"/>
<path d="M3696 2203 c-12 -12 -5 -23 14 -23 11 0 20 4 20 9 0 11 -26 22 -34
14z"/>
<path d="M7234 2189 c0 -11 5 -19 11 -19 7 0 22 -11 34 -24 17 -18 19 -25 9
-29 -9 -4 -9 -6 -1 -6 25 -2 20 15 -16 55 -28 32 -37 37 -37 23z"/>
<path d="M3585 2189 c-10 -15 1 -23 20 -15 9 3 13 10 10 16 -8 13 -22 13 -30
-1z"/>
<path d="M7168 2183 c6 -2 18 -2 25 0 6 3 1 5 -13 5 -14 0 -19 -2 -12 -5z"/>
<path d="M4595 2173 c-67 -9 -201 -45 -223 -59 -13 -9 -33 -14 -43 -11 -23 6
-23 8 -3 -32 9 -18 20 -67 25 -109 13 -114 18 -129 51 -157 34 -28 55 -29 72
-3 16 26 -16 57 -38 38 -22 -18 -41 1 -54 53 -16 62 -5 95 48 148 56 56 124
80 228 82 93 1 156 -18 192 -60 26 -29 30 -41 30 -93 0 -107 -57 -210 -163
-297 -29 -24 -55 -43 -59 -43 -12 0 -9 290 2 332 13 46 36 70 64 66 17 -2 20
-9 18 -31 -3 -25 0 -28 20 -25 19 2 24 10 26 40 3 30 -1 40 -20 52 -34 22 -79
7 -134 -44 -24 -22 -48 -40 -54 -40 -6 0 -5 -8 2 -20 10 -16 10 -22 0 -32 -11
-11 -17 -9 -32 10 -30 37 -100 27 -100 -14 0 -21 3 -23 18 -15 25 13 51 -4 68
-45 10 -25 14 -85 14 -238 l0 -205 -35 6 c-41 7 -44 -5 -10 -37 42 -40 57
-176 23 -217 -15 -18 -38 -16 -61 4 -18 17 -18 16 -15 -17 2 -28 10 -38 38
-52 22 -12 38 -14 44 -8 14 14 43 12 49 -4 3 -7 1 -18 -4 -23 -6 -6 18 -39 63
-86 80 -84 104 -94 151 -57 22 17 40 20 136 20 67 0 111 4 111 10 0 6 -28 10
-64 10 -59 0 -64 2 -59 20 4 14 0 20 -12 20 -12 0 -16 -6 -12 -20 4 -16 0 -20
-23 -20 -23 0 -27 4 -23 19 4 17 0 19 -39 18 -31 -2 -43 -6 -43 -17 -1 -22
-14 -40 -31 -40 -17 0 -64 44 -64 59 0 7 70 12 193 14 l192 2 -197 3 c-190 2
-198 3 -198 22 0 19 8 20 203 23 l202 2 -207 3 -208 2 0 224 0 224 57 28 c153
74 297 310 280 457 -10 84 -56 130 -153 153 -55 13 -171 16 -239 7z m230
-1193 c3 -5 1 -10 -4 -10 -6 0 -11 5 -11 10 0 6 2 10 4 10 3 0 8 -4 11 -10z"/>
<path d="M3861 2153 c0 -12 10 -35 24 -51 l25 -30 -37 -13 c-103 -33 -208
-109 -233 -169 -7 -17 -16 -30 -20 -30 -4 0 -21 22 -37 49 -36 57 -101 105
-196 141 -65 26 -68 28 -49 42 12 8 26 27 31 44 9 24 9 26 -2 9 -6 -10 -25
-32 -40 -48 -15 -16 -27 -30 -25 -32 2 -1 32 -12 68 -24 36 -12 89 -37 117
-57 62 -43 117 -118 103 -143 -6 -11 -4 -21 5 -31 29 -32 -40 -122 -81 -106
-15 6 -15 8 1 26 21 23 8 47 -19 37 -33 -13 -7 -77 30 -77 25 0 53 19 69 48
14 26 15 22 13 -62 -2 -87 -2 -88 -30 -98 -23 -8 -26 -13 -18 -28 14 -25 13
-73 -2 -88 -6 -6 -8 -15 -4 -19 4 -5 19 5 33 21 20 23 23 36 18 63 -5 26 -3
33 10 33 12 0 14 -8 9 -37 -4 -30 -1 -43 16 -60 27 -29 45 -30 29 -2 -10 19
-9 60 2 98 2 9 -6 17 -21 20 -23 6 -24 11 -27 96 l-3 90 21 -28 c32 -42 56
-51 85 -32 30 20 34 65 5 65 -27 0 -37 -21 -18 -35 24 -17 21 -25 -8 -25 -44
0 -91 74 -66 104 7 8 9 25 6 38 -4 17 2 35 23 64 45 62 107 99 251 150 11 3 6
13 -16 37 -17 18 -33 41 -36 52 -4 19 -5 19 -6 -2z m-231 -328 c0 -8 -7 -15
-15 -15 -8 0 -15 7 -15 15 0 8 7 15 15 15 8 0 15 -7 15 -15z"/>
<path d="M7158 2133 c12 -2 30 -2 40 0 9 3 -1 5 -23 4 -22 0 -30 -2 -17 -4z"/>
<path d="M7248 2123 c7 -3 16 -2 19 1 4 3 -2 6 -13 5 -11 0 -14 -3 -6 -6z"/>
<path d="M7315 2111 c-2 -5 4 -11 15 -14 11 -3 20 -2 20 3 0 12 -28 21 -35 11z"/>
<path d="M3441 2074 c26 -7 52 -21 59 -29 18 -21 37 -19 45 6 4 11 16 24 28
29 15 6 -11 9 -78 9 l-100 0 46 -15z"/>
<path d="M3593 2044 l-21 -47 21 -29 21 -28 28 31 c28 30 28 32 11 51 -10 11
-22 31 -28 44 -10 24 -11 23 -32 -22z"/>
<path d="M3681 2059 c28 -30 30 -31 49 -14 10 9 36 23 57 31 37 13 37 13 -49
14 l-86 0 29 -31z"/>
<path d="M7474 2000 l71 -69 7 59 c4 33 10 64 13 70 4 6 -24 10 -78 10 l-85 0
72 -70z"/>
<path d="M5165 1993 c-60 -19 -117 -37 -125 -40 -11 -4 -10 -7 8 -14 l22 -8 0
-279 c0 -238 -2 -281 -15 -292 -9 -7 -14 -15 -12 -17 3 -3 92 22 155 42 9 3 7
10 -8 25 -18 18 -20 33 -20 135 0 110 1 115 21 115 29 0 69 -45 109 -125 29
-57 32 -69 21 -87 -11 -17 -10 -19 6 -14 46 15 156 65 142 66 -21 0 -52 35
-79 90 -31 62 -68 108 -92 116 -18 5 -16 11 30 58 62 64 73 85 74 144 1 64 -7
85 -41 105 -40 24 -69 21 -196 -20z m111 -54 c23 -25 25 -110 3 -154 -19 -40
-69 -49 -69 -13 0 13 5 29 12 36 9 9 8 12 -8 12 -11 0 -25 -5 -32 -12 -9 -9
-12 5 -12 64 0 64 3 77 18 81 40 11 70 6 88 -14z"/>
<path d="M7070 1975 c-93 -95 -292 -257 -382 -309 -27 -15 -48 -32 -48 -37 0
-5 188 -9 450 -9 l450 0 0 58 c-2 183 -148 327 -352 348 l-63 6 -55 -57z m215
18 c97 -34 180 -106 216 -188 26 -58 37 -163 18 -170 -8 -3 -203 -4 -433 -3
l-419 3 71 47 c81 54 285 223 352 292 l45 47 55 -7 c30 -4 73 -13 95 -21z"/>
<path d="M5740 1950 c-8 -5 -10 -10 -5 -10 6 0 17 5 25 10 8 5 11 10 5 10 -5
0 -17 -5 -25 -10z"/>
<path d="M6445 1940 c-3 -6 1 -7 9 -4 18 7 21 14 7 14 -6 0 -13 -4 -16 -10z"/>
<path d="M3858 1919 c-22 -12 -23 -55 -2 -63 8 -3 28 1 44 9 52 27 120 16 243
-38 65 -30 152 -107 197 -176 96 -151 101 -363 10 -473 -64 -78 -197 -104
-260 -51 -29 24 -32 31 -27 66 3 21 13 47 23 58 28 31 -4 22 -37 -10 -53 -53
-30 -135 47 -167 56 -23 443 -16 428 8 -3 5 -57 6 -122 2 l-117 -6 37 26 c20
14 47 27 60 27 15 1 17 3 7 6 -14 3 -12 13 17 60 19 31 34 63 34 70 0 7 10 14
23 14 16 1 18 2 5 6 -10 2 -18 13 -18 24 0 11 7 19 18 20 14 0 14 2 2 7 -11 5
-16 26 -18 74 -3 66 -3 67 25 71 27 4 27 4 -4 6 -25 1 -33 5 -33 20 0 15 8 21
33 24 l32 4 -36 1 c-32 2 -49 15 -49 37 0 2 19 6 43 8 l42 4 -47 1 c-39 2 -48
6 -54 25 -4 12 -17 38 -29 57 -12 19 -24 40 -25 45 -2 6 -15 19 -29 30 l-25
20 29 6 30 7 -35 1 c-22 1 -52 13 -83 35 -60 43 -128 72 -224 97 -84 21 -129
24 -155 8z"/>
<path d="M5740 1900 c-8 -5 -10 -10 -5 -10 6 0 17 5 25 10 8 5 11 10 5 10 -5
0 -17 -5 -25 -10z"/>
<path d="M6120 1840 c-8 -5 -10 -10 -5 -10 6 0 17 5 25 10 8 5 11 10 5 10 -5
0 -17 -5 -25 -10z"/>
<path d="M3987 1786 c-73 -27 -107 -76 -107 -157 0 -45 4 -55 34 -85 29 -29
41 -34 83 -34 41 0 54 5 76 28 15 15 29 43 32 62 l5 35 -10 -35 c-22 -71 -85
-98 -150 -65 -59 31 -77 100 -44 171 21 43 34 53 97 75 29 10 45 18 37 18 -8
0 -32 -6 -53 -13z"/>
<path d="M4100 1776 c94 -25 182 -105 227 -204 35 -77 43 -198 18 -272 -31
-94 -127 -161 -185 -130 -23 13 -27 48 -5 56 17 7 20 40 5 49 -31 19 -81 -57
-60 -94 47 -88 188 -53 244 61 87 180 -2 430 -186 522 -28 14 -63 26 -77 25
-18 0 -12 -4 19 -13z"/>
<path d="M5000 1770 c-9 -6 -10 -10 -3 -10 6 0 15 5 18 10 8 12 4 12 -15 0z"/>
<path d="M6070 1765 c-14 -8 -20 -14 -15 -14 6 0 21 6 35 14 14 8 21 14 15 14
-5 0 -21 -6 -35 -14z"/>
<path d="M5440 1760 c-8 -5 -10 -10 -5 -10 6 0 17 5 25 10 8 5 11 10 5 10 -5
0 -17 -5 -25 -10z"/>
<path d="M4940 1700 c-8 -5 -10 -10 -5 -10 6 0 17 5 25 10 8 5 11 10 5 10 -5
0 -17 -5 -25 -10z"/>
<path d="M3975 1675 c-28 -27 -29 -33 -15 -69 12 -34 54 -44 80 -21 23 20 26
45 8 63 -16 16 -33 15 -52 -4 -13 -12 -14 -20 -4 -37 10 -20 10 -21 -5 -8 -38
31 -8 81 48 81 24 0 39 -7 49 -22 9 -12 16 -17 16 -11 0 18 -50 53 -77 53 -13
0 -35 -11 -48 -25z m69 -50 c3 -8 -2 -21 -10 -30 -19 -19 -25 -19 -18 -1 3 8
0 17 -5 21 -6 3 -9 11 -6 16 9 14 32 11 39 -6z"/>
<path d="M4433 1683 c15 -2 37 -2 50 0 12 2 0 4 -28 4 -27 0 -38 -2 -22 -4z"/>
<path d="M5460 1670 c-19 -11 -30 -19 -25 -19 6 0 26 8 45 19 19 11 31 19 25
19 -5 0 -26 -8 -45 -19z"/>
<path d="M4448 1633 c12 -2 30 -2 40 0 9 3 -1 5 -23 4 -22 0 -30 -2 -17 -4z"/>
<path d="M5468 1624 c-39 -21 -35 -28 5 -8 37 19 44 24 31 24 -5 -1 -21 -8
-36 -16z"/>
<path d="M5730 1600 c-8 -5 -10 -10 -5 -10 6 0 17 5 25 10 8 5 11 10 5 10 -5
0 -17 -5 -25 -10z"/>
<path d="M4778 1493 c7 -3 16 -2 19 1 4 3 -2 6 -13 5 -11 0 -14 -3 -6 -6z"/>
<path d="M5998 1473 c144 -2 380 -2 525 0 144 1 26 2 -263 2 -289 0 -407 -1
-262 -2z"/>
<path d="M7742 1473 l398 -3 15 -37 c22 -52 60 -99 108 -134 22 -16 35 -29 30
-29 -25 0 -111 -92 -132 -140 l-21 -50 -433 -3 -432 -2 439 0 439 0 14 42 c17
51 81 118 133 142 l39 17 -34 13 c-48 17 -121 93 -137 143 l-15 43 -404 0
-404 0 397 -2z"/>
<path d="M5365 1373 c-249 -112 -564 -231 -661 -249 -30 -5 -49 -24 -25 -24
66 0 764 269 805 310 23 23 -7 14 -119 -37z"/>
<path d="M3603 1399 c4 -13 7 -66 7 -118 0 -52 2 -92 4 -90 2 2 6 53 7 113 2
85 0 111 -11 114 -9 3 -11 -2 -7 -19z"/>
<path d="M5721 1368 c0 -30 1 -31 9 -10 5 12 17 22 25 22 14 0 16 -14 13 -105
l-3 -105 25 0 25 0 -3 105 c-3 90 -1 105 12 105 9 0 16 -9 16 -21 0 -11 5 -17
10 -14 6 3 10 17 10 31 0 23 -2 24 -70 24 l-70 0 1 -32z"/>
<path d="M5898 1285 l3 -115 58 0 c52 0 59 3 64 22 3 12 1 31 -6 42 -11 20
-12 20 -15 -7 -3 -24 -31 -47 -58 -47 -2 0 -4 23 -4 50 0 51 12 64 38 38 9 -9
12 -6 12 15 0 24 -3 27 -25 21 -24 -6 -25 -4 -25 35 0 39 2 41 30 41 24 0 30
-4 30 -21 0 -11 5 -17 10 -14 6 3 10 17 10 31 0 23 -3 24 -62 24 l-63 0 3
-115z"/>
<path d="M6097 1381 c5 -20 -24 -164 -39 -193 -7 -14 -5 -18 11 -18 13 0 18 5
15 14 -3 7 1 20 9 27 7 8 12 20 9 27 -2 7 6 12 21 12 19 0 28 -8 36 -31 6 -17
8 -35 5 -40 -3 -5 6 -9 20 -9 24 0 24 2 14 31 -8 24 -8 37 1 50 15 25 14 30
-4 23 -15 -6 -31 23 -42 79 -4 21 -2 27 11 27 10 0 14 5 11 10 -3 6 -23 10
-45 10 -33 0 -37 -3 -33 -19z m32 -93 c1 -10 -6 -18 -15 -18 -12 0 -15 6 -10
23 3 12 6 29 7 37 1 20 17 -18 18 -42z"/>
<path d="M6255 1285 l0 -115 63 0 62 0 0 39 c0 22 -4 43 -10 46 -5 3 -10 -3
-10 -14 0 -35 -12 -51 -37 -51 l-24 0 3 105 3 105 -25 0 -25 0 0 -115z"/>
<path d="M6415 1280 l0 -120 25 0 25 0 0 120 0 120 -25 0 -25 0 0 -120z"/>
<path d="M6505 1280 c0 -100 3 -120 15 -120 12 0 15 16 13 92 l-2 93 42 -87
c23 -49 47 -88 54 -88 8 0 13 34 15 115 l3 115 -24 0 c-19 0 -21 -3 -12 -14 7
-9 11 -38 9 -73 l-3 -58 -27 59 c-16 32 -28 65 -28 72 0 9 -11 14 -27 14 l-28
0 0 -120z"/>
<path d="M6707 1389 c-43 -25 -59 -116 -31 -172 21 -41 31 -47 76 -47 56 0 64
6 60 44 -2 19 1 37 7 40 6 4 11 13 11 20 0 15 -84 6 -102 -12 -13 -13 -4 -42
13 -42 6 0 9 7 5 15 -4 10 1 15 14 15 14 0 20 -7 20 -24 0 -38 -23 -50 -51
-27 -21 17 -24 28 -24 84 0 68 14 97 46 97 18 0 24 -11 20 -35 -1 -5 5 -3 14
6 37 36 -27 67 -78 38z"/>
<path d="M7255 1280 l0 -120 25 0 25 0 0 120 0 120 -25 0 -25 0 0 -120z"/>
<path d="M7340 1370 c0 -16 4 -30 9 -30 5 0 8 8 7 17 0 10 7 19 17 21 17 3 18
-4 15 -102 l-3 -106 25 0 25 0 -3 105 c-3 90 -1 105 12 105 15 0 21 -12 17
-33 -1 -5 3 -6 9 -2 5 3 10 17 10 31 0 23 -2 24 -70 24 l-70 0 0 -30z"/>
<path d="M7529 1371 c-26 -26 -29 -37 -29 -89 0 -76 25 -112 75 -112 40 0 70
35 58 66 -6 16 -8 14 -13 -11 -7 -42 -51 -48 -68 -10 -15 31 -16 104 -2 139
12 32 49 36 57 6 7 -26 23 -15 23 16 0 21 -5 24 -36 24 -26 0 -43 -8 -65 -29z"/>
<path d="M7665 1285 c0 -113 0 -115 23 -115 19 0 22 5 22 39 0 22 5 42 13 44
10 4 10 6 0 6 -28 2 -11 21 18 21 l31 0 -4 -60 c-3 -59 -3 -60 23 -60 26 0 26
2 21 46 -3 28 0 55 9 70 11 21 11 27 0 33 -9 6 -12 23 -9 50 3 38 2 41 -22 41
-24 0 -25 -2 -22 -50 l4 -50 -32 0 -32 0 4 50 c3 48 2 50 -22 50 l-25 0 0
-115z"/>
<path d="M7865 1285 l0 -116 60 3 c56 3 60 5 63 29 2 14 -4 31 -12 38 -12 10
-14 9 -9 -8 3 -13 -3 -24 -21 -36 -34 -23 -46 -12 -46 41 0 37 3 44 19 44 11
0 22 -6 24 -12 3 -7 6 -1 6 13 1 23 -2 26 -24 21 -23 -4 -25 -2 -25 37 0 42 1
42 33 39 26 -2 31 -7 29 -23 -3 -18 -2 -19 13 -4 30 29 9 49 -54 49 l-56 0 0
-115z"/>
<path d="M8038 1389 c-33 -19 -22 -62 27 -107 25 -22 45 -50 45 -61 0 -27 -37
-38 -59 -16 -15 15 -15 17 2 30 20 14 8 29 -16 19 -35 -13 -27 -66 12 -79 27
-8 66 3 86 25 23 26 12 54 -43 105 -31 29 -43 47 -39 59 9 24 47 21 47 -4 0
-22 16 -27 23 -7 2 6 2 20 -1 30 -5 19 -55 23 -84 6z"/>
<path d="M5421 1365 c-138 -65 -274 -184 -322 -282 -44 -91 -33 -220 27 -314
32 -51 112 -113 177 -137 29 -11 100 -28 157 -37 248 -39 279 -45 321 -63 96
-41 145 -114 158 -230 7 -66 8 -66 20 -37 20 45 25 146 11 190 -14 44 -70 108
-120 140 -52 33 -163 71 -308 105 -69 17 -149 41 -177 54 -83 38 -145 115
-145 181 0 68 64 150 166 215 35 22 64 44 64 49 0 13 62 71 77 71 7 0 13 4 13
8 0 14 -23 32 -42 32 -22 0 -35 45 -18 65 18 21 3 19 -59 -10z"/>
<path d="M4768 1343 c7 -3 16 -2 19 1 4 3 -2 6 -13 5 -11 0 -14 -3 -6 -6z"/>
<path d="M4768 1293 c7 -3 16 -2 19 1 4 3 -2 6 -13 5 -11 0 -14 -3 -6 -6z"/>
<path d="M4728 1283 c7 -3 16 -2 19 1 4 3 -2 6 -13 5 -11 0 -14 -3 -6 -6z"/>
<path d="M4768 1243 c7 -3 16 -2 19 1 4 3 -2 6 -13 5 -11 0 -14 -3 -6 -6z"/>
<path d="M4728 1233 c7 -3 16 -2 19 1 4 3 -2 6 -13 5 -11 0 -14 -3 -6 -6z"/>
<path d="M8437 1234 c-13 -13 -7 -24 14 -24 11 0 19 5 17 12 -5 14 -22 21 -31
12z"/>
<path d="M8380 1215 c0 -10 7 -15 18 -13 21 4 19 22 -2 26 -10 2 -16 -3 -16
-13z"/>
<path d="M8326 1202 c-2 -4 -1 -14 4 -22 7 -11 12 -12 21 -3 6 6 8 16 5 22 -8
13 -23 14 -30 3z"/>
<path d="M8282 1164 c4 -21 22 -23 26 -1 2 10 -3 17 -13 17 -10 0 -15 -6 -13
-16z"/>
<path d="M8244 1129 c-10 -17 13 -36 27 -22 12 12 4 33 -11 33 -5 0 -12 -5
-16 -11z"/>
<path d="M5338 1073 c12 -2 32 -2 45 0 12 2 2 4 -23 4 -25 0 -35 -2 -22 -4z"/>
<path d="M6033 1073 c164 -2 430 -2 590 0 161 1 27 2 -298 2 -324 0 -456 -1
-292 -2z"/>
<path d="M8217 1074 c-9 -10 2 -24 19 -24 8 0 14 7 14 15 0 15 -21 21 -33 9z"/>
<path d="M8205 1021 c-3 -6 -3 -17 1 -23 5 -7 8 -24 8 -38 1 -18 6 -25 21 -25
24 0 33 34 14 49 -8 6 -14 17 -14 25 0 18 -21 26 -30 12z"/>
<path d="M4967 1004 c-13 -13 -7 -24 14 -24 11 0 19 5 17 12 -5 14 -22 21 -31
12z"/>
<path d="M5265 1000 c-3 -6 1 -13 10 -16 19 -8 30 0 20 15 -8 14 -22 14 -30 1z"/>
<path d="M5417 1004 c-13 -13 -7 -24 14 -24 11 0 19 5 17 12 -5 14 -22 21 -31
12z"/>
<path d="M5637 1004 c-13 -13 -7 -24 14 -24 11 0 19 5 17 12 -5 14 -22 21 -31
12z"/>
<path d="M5715 1000 c-3 -6 1 -13 10 -16 19 -8 30 0 20 15 -8 14 -22 14 -30 1z"/>
<path d="M5865 999 c-10 -15 1 -23 20 -15 9 3 13 10 10 16 -8 13 -22 13 -30
-1z"/>
<path d="M6085 999 c-10 -15 1 -23 20 -15 9 3 13 10 10 16 -8 13 -22 13 -30
-1z"/>
<path d="M6165 1000 c-3 -6 1 -13 10 -16 19 -8 30 0 20 15 -8 14 -22 14 -30 1z"/>
<path d="M6315 999 c-10 -15 1 -23 20 -15 9 3 13 10 10 16 -8 13 -22 13 -30
-1z"/>
<path d="M6535 999 c-10 -15 1 -23 20 -15 9 3 13 10 10 16 -8 13 -22 13 -30
-1z"/>
<path d="M6617 1004 c-13 -13 -7 -24 14 -24 11 0 19 5 17 12 -5 14 -22 21 -31
12z"/>
<path d="M6765 999 c-10 -15 1 -23 20 -15 9 3 13 10 10 16 -8 13 -22 13 -30
-1z"/>
<path d="M7067 1004 c-13 -13 -7 -24 14 -24 11 0 19 5 17 12 -5 14 -22 21 -31
12z"/>
<path d="M7285 1000 c-3 -6 1 -13 10 -16 19 -8 30 0 20 15 -8 14 -22 14 -30 1z"/>
<path d="M7505 1000 c-3 -6 1 -13 10 -16 19 -8 30 0 20 15 -8 14 -22 14 -30 1z"/>
<path d="M7580 995 c0 -8 7 -15 15 -15 8 0 15 7 15 15 0 8 -7 15 -15 15 -8 0
-15 -7 -15 -15z"/>
<path d="M7655 999 c-10 -15 1 -23 20 -15 9 3 13 10 10 16 -8 13 -22 13 -30
-1z"/>
<path d="M7730 995 c0 -8 7 -15 15 -15 8 0 15 7 15 15 0 8 -7 15 -15 15 -8 0
-15 -7 -15 -15z"/>
<path d="M7800 995 c0 -8 7 -15 15 -15 8 0 15 7 15 15 0 8 -7 15 -15 15 -8 0
-15 -7 -15 -15z"/>
<path d="M7875 999 c-10 -15 1 -23 20 -15 9 3 13 10 10 16 -8 13 -22 13 -30
-1z"/>
<path d="M7947 1004 c-9 -10 2 -24 19 -24 8 0 14 7 14 15 0 15 -21 21 -33 9z"/>
<path d="M8020 995 c0 -8 7 -15 15 -15 8 0 15 7 15 15 0 8 -7 15 -15 15 -8 0
-15 -7 -15 -15z"/>
<path d="M8080 995 c0 -10 7 -15 18 -13 21 4 19 22 -2 26 -10 2 -16 -3 -16
-13z"/>
<path d="M8145 1000 c-3 -6 1 -13 10 -16 19 -8 30 0 20 15 -8 14 -22 14 -30 1z"/>
<path d="M4630 895 c-18 -22 0 -52 26 -46 11 3 103 6 207 8 153 3 187 6 187
18 0 12 -34 15 -187 17 -104 2 -195 7 -204 11 -10 5 -21 2 -29 -8z"/>
<path d="M5260 880 c0 -6 6 -13 13 -15 6 -2 179 -6 382 -8 238 -3 391 -9 430
-17 154 -31 255 -131 255 -250 0 -63 -30 -100 -82 -100 -25 0 -29 -3 -20 -12
14 -14 16 -54 2 -63 -5 -3 -32 -9 -59 -12 -62 -7 -131 23 -161 71 -77 125 82
275 174 165 31 -37 33 -68 6 -102 -27 -34 -56 -42 -85 -23 -33 22 -41 53 -19
77 22 25 50 24 64 -1 13 -24 6 -40 -17 -40 -10 0 -14 6 -10 20 3 13 0 20 -8
20 -21 0 -28 -19 -15 -35 30 -37 81 -3 62 40 -22 48 -102 22 -102 -34 0 -30
43 -71 75 -71 16 0 38 12 56 29 88 88 -39 218 -148 151 -67 -40 -87 -139 -42
-204 34 -50 86 -76 150 -76 66 0 112 22 152 72 25 31 30 49 35 107 5 82 -17
141 -74 191 -34 29 -35 32 -23 65 l13 35 462 0 c407 0 464 -2 478 -16 34 -34
5 -94 -38 -78 -24 9 -21 54 4 54 11 0 20 -5 20 -11 0 -6 -7 -9 -15 -5 -9 3
-15 0 -15 -10 0 -24 34 -12 38 12 2 15 -4 23 -18 27 -21 6 -50 -15 -50 -37 0
-17 33 -46 52 -46 23 0 48 34 48 66 0 35 -8 47 -37 63 -29 15 -1933 16 -1933
1z"/>
<path d="M5772 825 c54 -29 80 -60 72 -90 -7 -28 21 -54 39 -36 28 28 -89 152
-142 151 -9 -1 5 -12 31 -25z"/>
<path d="M6453 817 c15 -7 45 -31 67 -52 28 -27 43 -36 50 -29 6 6 8 18 4 27
-7 18 -74 53 -119 61 l-30 6 28 -13z"/>
<path d="M6427 739 c23 -24 54 -66 70 -93 30 -52 53 -69 53 -41 0 24 -63 107
-102 137 -58 43 -64 42 -21 -3z"/>
</g>
</svg>
